{
	"patcher" : 	{
		"fileversion" : 1,
		"appversion" : 		{
			"major" : 7,
			"minor" : 3,
			"revision" : 5,
			"architecture" : "x64",
			"modernui" : 1
		}
,
		"rect" : [ -1800.0, -66.0, 1013.0, 828.0 ],
		"bgcolor" : [ 0.239216, 0.254902, 0.278431, 1.0 ],
		"editing_bgcolor" : [ 0.239216, 0.254902, 0.278431, 1.0 ],
		"bglocked" : 0,
		"openinpresentation" : 1,
		"default_fontsize" : 11.0,
		"default_fontface" : 0,
		"default_fontname" : "Futura Medium",
		"gridonopen" : 1,
		"gridsize" : [ 15.0, 15.0 ],
		"gridsnaponopen" : 1,
		"objectsnaponopen" : 1,
		"statusbarvisible" : 2,
		"toolbarvisible" : 1,
		"lefttoolbarpinned" : 0,
		"toptoolbarpinned" : 0,
		"righttoolbarpinned" : 0,
		"bottomtoolbarpinned" : 0,
		"toolbars_unpinned_last_save" : 0,
		"tallnewobj" : 0,
		"boxanimatetime" : 200,
		"enablehscroll" : 1,
		"enablevscroll" : 1,
		"devicewidth" : 0.0,
		"description" : "",
		"digest" : "",
		"tags" : "",
		"style" : "tatarism",
		"subpatcher_template" : "Default Max 7",
		"boxes" : [ 			{
				"box" : 				{
					"id" : "obj-21",
					"maxclass" : "button",
					"numinlets" : 1,
					"numoutlets" : 1,
					"outlettype" : [ "bang" ],
					"patching_rect" : [ 341.0, 196.0, 24.0, 24.0 ],
					"style" : ""
				}

			}
, 			{
				"box" : 				{
					"id" : "obj-11",
					"maxclass" : "newobj",
					"numinlets" : 1,
					"numoutlets" : 2,
					"outlettype" : [ "bang", "clear" ],
					"patching_rect" : [ 329.416656, 230.962402, 52.0, 23.0 ],
					"style" : "",
					"text" : "t b clear"
				}

			}
, 			{
				"box" : 				{
					"id" : "obj-10",
					"linecount" : 4,
					"maxclass" : "message",
					"numinlets" : 2,
					"numoutlets" : 1,
					"outlettype" : [ "" ],
					"patching_rect" : [ 288.0, 505.0, 50.0, 66.0 ],
					"style" : "",
					"text" : "\"07 - data.hypercomplex\""
				}

			}
, 			{
				"box" : 				{
					"id" : "obj-4",
					"maxclass" : "newobj",
					"numinlets" : 1,
					"numoutlets" : 1,
					"outlettype" : [ "" ],
					"patching_rect" : [ 674.375, 422.174805, 81.0, 23.0 ],
					"style" : "",
					"text" : "prepend write"
				}

			}
, 			{
				"box" : 				{
					"id" : "obj-2",
					"maxclass" : "newobj",
					"numinlets" : 4,
					"numoutlets" : 2,
					"outlettype" : [ "", "" ],
					"patching_rect" : [ 674.375, 392.462402, 222.0, 23.0 ],
					"style" : "tatarism",
					"text" : "combine ./ data/VMM_ 0 .txt @triggers 3"
				}

			}
, 			{
				"box" : 				{
					"id" : "obj-108",
					"maxclass" : "newobj",
					"numinlets" : 1,
					"numoutlets" : 1,
					"outlettype" : [ "" ],
					"patching_rect" : [ 719.0, 315.212402, 55.0, 23.0 ],
					"style" : "",
					"text" : "deferlow"
				}

			}
, 			{
				"box" : 				{
					"id" : "obj-70",
					"maxclass" : "newobj",
					"numinlets" : 1,
					"numoutlets" : 1,
					"outlettype" : [ "" ],
					"patching_rect" : [ 611.75, 597.287598, 55.0, 23.0 ],
					"style" : "",
					"text" : "deferlow"
				}

			}
, 			{
				"box" : 				{
					"id" : "obj-68",
					"maxclass" : "newobj",
					"numinlets" : 1,
					"numoutlets" : 1,
					"outlettype" : [ "" ],
					"patching_rect" : [ 611.75, 336.674805, 55.0, 23.0 ],
					"style" : "",
					"text" : "deferlow"
				}

			}
, 			{
				"box" : 				{
					"id" : "obj-36",
					"maxclass" : "newobj",
					"numinlets" : 1,
					"numoutlets" : 1,
					"outlettype" : [ "" ],
					"patcher" : 					{
						"fileversion" : 1,
						"appversion" : 						{
							"major" : 7,
							"minor" : 3,
							"revision" : 5,
							"architecture" : "x64",
							"modernui" : 1
						}
,
						"rect" : [ -1110.0, 42.0, 940.0, 502.0 ],
						"bgcolor" : [ 0.239216, 0.254902, 0.278431, 1.0 ],
						"editing_bgcolor" : [ 0.239216, 0.254902, 0.278431, 1.0 ],
						"bglocked" : 0,
						"openinpresentation" : 0,
						"default_fontsize" : 12.0,
						"default_fontface" : 0,
						"default_fontname" : "Futura Medium",
						"gridonopen" : 1,
						"gridsize" : [ 15.0, 15.0 ],
						"gridsnaponopen" : 1,
						"objectsnaponopen" : 1,
						"statusbarvisible" : 2,
						"toolbarvisible" : 1,
						"lefttoolbarpinned" : 0,
						"toptoolbarpinned" : 0,
						"righttoolbarpinned" : 0,
						"bottomtoolbarpinned" : 0,
						"toolbars_unpinned_last_save" : 0,
						"tallnewobj" : 0,
						"boxanimatetime" : 200,
						"enablehscroll" : 1,
						"enablevscroll" : 1,
						"devicewidth" : 0.0,
						"description" : "",
						"digest" : "",
						"tags" : "",
						"style" : "tatarism",
						"subpatcher_template" : "Default Max 7",
						"boxes" : [ 							{
								"box" : 								{
									"id" : "obj-24",
									"maxclass" : "newobj",
									"numinlets" : 1,
									"numoutlets" : 1,
									"outlettype" : [ "" ],
									"patching_rect" : [ 50.0, 164.5, 95.0, 24.0 ],
									"style" : "",
									"text" : "tosymbol"
								}

							}
, 							{
								"box" : 								{
									"id" : "obj-23",
									"maxclass" : "newobj",
									"numinlets" : 2,
									"numoutlets" : 2,
									"outlettype" : [ "", "" ],
									"patching_rect" : [ 50.0, 130.0, 94.0, 24.0 ],
									"style" : "",
									"text" : "zl.slice 1"
								}

							}
, 							{
								"box" : 								{
									"id" : "obj-22",
									"maxclass" : "newobj",
									"numinlets" : 1,
									"numoutlets" : 1,
									"outlettype" : [ "" ],
									"patching_rect" : [ 50.0, 100.0, 182.0, 24.0 ],
									"style" : "",
									"text" : "fromsymbol @separator :"
								}

							}
, 							{
								"box" : 								{
									"id" : "obj-10",
									"maxclass" : "newobj",
									"numinlets" : 2,
									"numoutlets" : 2,
									"outlettype" : [ "", "" ],
									"patching_rect" : [ 50.0, 227.5, 94.0, 24.0 ],
									"style" : "",
									"text" : "zl.ecils 1"
								}

							}
, 							{
								"box" : 								{
									"id" : "obj-2",
									"maxclass" : "newobj",
									"numinlets" : 1,
									"numoutlets" : 1,
									"outlettype" : [ "" ],
									"patching_rect" : [ 50.0, 195.5, 181.0, 24.0 ],
									"style" : "",
									"text" : "fromsymbol @separator /"
								}

							}
, 							{
								"box" : 								{
									"comment" : "",
									"id" : "obj-33",
									"index" : 1,
									"maxclass" : "inlet",
									"numinlets" : 0,
									"numoutlets" : 1,
									"outlettype" : [ "" ],
									"patching_rect" : [ 50.0, 40.0, 30.0, 30.0 ],
									"style" : ""
								}

							}
, 							{
								"box" : 								{
									"comment" : "",
									"id" : "obj-34",
									"index" : 1,
									"maxclass" : "outlet",
									"numinlets" : 1,
									"numoutlets" : 0,
									"patching_rect" : [ 50.0, 259.5, 30.0, 30.0 ],
									"style" : ""
								}

							}
 ],
						"lines" : [ 							{
								"patchline" : 								{
									"destination" : [ "obj-34", 0 ],
									"source" : [ "obj-10", 1 ]
								}

							}
, 							{
								"patchline" : 								{
									"destination" : [ "obj-10", 0 ],
									"source" : [ "obj-2", 0 ]
								}

							}
, 							{
								"patchline" : 								{
									"destination" : [ "obj-23", 0 ],
									"source" : [ "obj-22", 0 ]
								}

							}
, 							{
								"patchline" : 								{
									"destination" : [ "obj-24", 0 ],
									"source" : [ "obj-23", 1 ]
								}

							}
, 							{
								"patchline" : 								{
									"destination" : [ "obj-2", 0 ],
									"source" : [ "obj-24", 0 ]
								}

							}
, 							{
								"patchline" : 								{
									"destination" : [ "obj-22", 0 ],
									"source" : [ "obj-33", 0 ]
								}

							}
 ],
						"styles" : [ 							{
								"name" : "tatarism",
								"default" : 								{
									"textcolor_inverse" : [ 0.862745, 0.870588, 0.878431, 1.0 ],
									"fontname" : [ "Futura Medium" ],
									"elementcolor" : [ 0.589653, 0.589635, 0.589645, 1.0 ],
									"textcolor" : [ 1.0, 1.0, 1.0, 1.0 ],
									"bgcolor" : [ 0.19771, 0.188048, 0.201856, 1.0 ],
									"color" : [ 0.701961, 0.415686, 0.886275, 1.0 ]
								}
,
								"parentstyle" : "",
								"multi" : 0
							}
 ]
					}
,
					"patching_rect" : [ 148.25, 157.0, 69.0, 23.0 ],
					"saved_object_attributes" : 					{
						"description" : "",
						"digest" : "",
						"globalpatchername" : "",
						"style" : "tatarism",
						"tags" : ""
					}
,
					"style" : "",
					"text" : "p lastFolder"
				}

			}
, 			{
				"box" : 				{
					"fontsize" : 9.0,
					"id" : "obj-156",
					"maxclass" : "comment",
					"numinlets" : 1,
					"numoutlets" : 0,
					"patching_rect" : [ 284.0, 38.75, 112.0, 18.0 ],
					"presentation" : 1,
					"presentation_rect" : [ 289.0, 39.787598, 61.0, 18.0 ],
					"style" : "",
					"text" : "Total <= 10"
				}

			}
, 			{
				"box" : 				{
					"fontsize" : 9.0,
					"id" : "obj-155",
					"linecount" : 2,
					"maxclass" : "comment",
					"numinlets" : 1,
					"numoutlets" : 0,
					"patching_rect" : [ 194.25, 28.462402, 112.0, 30.0 ],
					"presentation" : 1,
					"presentation_rect" : [ 200.0, 27.287598, 150.0, 18.0 ],
					"style" : "",
					"text" : "Select a set of songs to train VMM"
				}

			}
, 			{
				"box" : 				{
					"id" : "obj-154",
					"maxclass" : "comment",
					"numinlets" : 1,
					"numoutlets" : 0,
					"patching_rect" : [ 376.616455, 7.462402, 150.0, 21.0 ],
					"presentation" : 1,
					"presentation_rect" : [ 366.75, 10.5, 125.88353, 21.0 ],
					"style" : "",
					"text" : "Make a VMM model"
				}

			}
, 			{
				"box" : 				{
					"id" : "obj-152",
					"maxclass" : "newobj",
					"numinlets" : 2,
					"numoutlets" : 2,
					"outlettype" : [ "", "" ],
					"patching_rect" : [ 329.416656, 336.674805, 89.0, 23.0 ],
					"style" : "",
					"text" : "zl 32767 slice 1"
				}

			}
, 			{
				"box" : 				{
					"id" : "obj-151",
					"maxclass" : "newobj",
					"numinlets" : 2,
					"numoutlets" : 1,
					"outlettype" : [ "" ],
					"patching_rect" : [ 258.416656, 374.462402, 90.0, 23.0 ],
					"style" : "",
					"text" : "join @triggers 1"
				}

			}
, 			{
				"box" : 				{
					"id" : "obj-150",
					"maxclass" : "newobj",
					"numinlets" : 1,
					"numoutlets" : 1,
					"outlettype" : [ "" ],
					"patching_rect" : [ 329.416656, 255.5, 55.0, 23.0 ],
					"style" : "",
					"text" : "deferlow"
				}

			}
, 			{
				"box" : 				{
					"id" : "obj-142",
					"maxclass" : "message",
					"numinlets" : 2,
					"numoutlets" : 1,
					"outlettype" : [ "" ],
					"patching_rect" : [ 329.416656, 282.0, 39.0, 23.0 ],
					"style" : "",
					"text" : "dump"
				}

			}
, 			{
				"box" : 				{
					"color" : [ 0.941176, 0.690196, 0.196078, 1.0 ],
					"id" : "obj-139",
					"maxclass" : "newobj",
					"numinlets" : 1,
					"numoutlets" : 4,
					"outlettype" : [ "", "", "", "" ],
					"patching_rect" : [ 329.416656, 309.0, 182.0, 23.0 ],
					"saved_object_attributes" : 					{
						"embed" : 0
					}
,
					"style" : "",
					"text" : "coll #0-VMM-training-SOM-seq"
				}

			}
, 			{
				"box" : 				{
					"id" : "obj-138",
					"maxclass" : "newobj",
					"numinlets" : 1,
					"numoutlets" : 1,
					"outlettype" : [ "" ],
					"patching_rect" : [ 258.0, 404.462402, 83.0, 23.0 ],
					"style" : "",
					"text" : "prepend insert"
				}

			}
, 			{
				"box" : 				{
					"id" : "obj-137",
					"items" : [ "01 - data.index", ",", "01 Supercodex 01", ",", "01. Ryoji Ikeda - Test Pattern #0001", ",", "02 - data.simplex", ",", "02 Supercodex 02", ",", "02-AudioTrack 06", ",", "02. Ryoji Ikeda - Test Pattern #0010", ",", "03 - data.duplex", ",", "03 Supercodex 03", ",", "03. Ryoji Ikeda - Test Pattern #0011", ",", "04 - data.triplex", ",", "04 Supercodex 04", ",", "04-10 _ Samiland _ heure-du-chien", ",", "04. Ryoji Ikeda - Test Pattern #0100", ",", "05 - data.multiplex", ",", "05 Supercodex 05", ",", "05. Ryoji Ikeda - Test Pattern #0101", ",", "06 - data.complex", ",", "06 Supercodex 06", ",", "06-09 _ Samiland _ Minidub-ennui-master", ",", "06. Ryoji Ikeda - Test Pattern #0110", ",", "07 - data.hypercomplex", ",", "07 Supercodex 07", ",", "07-11 _ Samiland _ monobor-monokini", ",", "07. Ryoji Ikeda - Test Pattern #0111", ",", "08 - data.googolplex", ",", "08 Supercodex 08", ",", "08-13 _ Unknown artist _ _robonom-200catch", ",", "08. Ryoji Ikeda - Test Pattern #1000", ",", "09 - data.microhelix", ",", "09 Supercodex 09", ",", "09. Ryoji Ikeda - Test Pattern #1001", ",", "10 - data.superhelix", ",", "10 Supercodex 10", ",", "10-12 _ Samiland _ hulo", ",", "10. Ryoji Ikeda - Test Pattern #1010", ",", "11 - data.minimax", ",", "11 Supercodex 11", ",", "11. Ryoji Ikeda - Test Pattern #1011", ",", "12 - data.syntax", ",", "12 Supercodex 12", ",", "12-Rhythm & Sound _ 2005 - See Mi Yah - 11 - See Mi Version", ",", "12. Ryoji Ikeda - Test Pattern #1100", ",", "13 - data.telex", ",", "13 Supercodex 13", ",", "13. Ryoji Ikeda - Test Pattern #1101", ",", "14 - data.flex", ",", "14 Supercodex 14", ",", "14-1 c a d 14", ",", "14-14", ",", "14-4", ",", "14-_ Track 15", ",", "14-AudioTrack 14_1", ",", "14-oren ambarchi - lungs", ",", "14. johdin", ",", "14. johto 3", ",", "14. Ryoji Ikeda - Test Pattern #1110", ",", "14_1", ",", "14_refail", ",", "15 - data.reflex", ",", "15 Supercodex 15", ",", "15. Ryoji Ikeda - Test Pattern #1111", ",", "16 - data.convex", ",", "16 Supercodex 16", ",", "16. Ryoji Ikeda - Test Pattern #0000", ",", "17 - data.vertex", ",", "17 Supercodex 17", ",", "18 - data.vortex", ",", "18 Supercodex 18", ",", "19 - data.matrix", ",", "19 Supercodex 19", ",", "2-11 transvision - remodel", ",", "2-12 transvision - j", ",", "2-13 transvision - postfabric", ",", "2-14 transvision - 11", ",", "20 - data.adaplex", ",", "20 Supercodex 20", ",", "3-04 transspray - birr", ",", "3-05 transspray - obi one (edit xs v", ",", "3-07 transspray - autoshape", ",", "KIVANC-16", ",", "monobor-2001-monorail", ",", "monobor-2001-monoski", ",", "monobor-2001-robodisco", ",", "MONOBOR-Berlin.Fr.Qc.Ca2", ",", "Moritz Von Oswald Trio - Vertical Ascent - Pattern 1", ",", "Moritz Von Oswald Trio - Vertical Ascent - Pattern 2", ",", "Moritz Von Oswald Trio - Vertical Ascent - Pattern 3", ",", "Moritz Von Oswald Trio - Vertical Ascent - Pattern 4", ",", "Samiland-basse-luminosite", ",", "Samiland-heure-du-chien", ",", "Samiland-Minidub-ennui-master", ",", "Samiland-monobor-monokini" ],
					"maxclass" : "umenu",
					"numinlets" : 1,
					"numoutlets" : 3,
					"outlettype" : [ "int", "", "" ],
					"parameter_enable" : 0,
					"patching_rect" : [ 258.0, 441.0, 179.0, 23.0 ],
					"presentation" : 1,
					"presentation_rect" : [ 3.61647, 39.787598, 187.0, 23.0 ],
					"style" : ""
				}

			}
, 			{
				"box" : 				{
					"id" : "obj-132",
					"maxclass" : "message",
					"numinlets" : 2,
					"numoutlets" : 1,
					"outlettype" : [ "" ],
					"patching_rect" : [ 714.75, 481.674805, 29.5, 23.0 ],
					"style" : "",
					"text" : "1"
				}

			}
, 			{
				"box" : 				{
					"activebgcolor" : [ 0.701961, 0.415686, 0.886275, 1.0 ],
					"activebgoncolor" : [ 0.466667, 0.254902, 0.607843, 1.0 ],
					"fontname" : "Futura Medium",
					"fontsize" : 16.0,
					"id" : "obj-128",
					"ignoreclick" : 1,
					"maxclass" : "live.text",
					"numinlets" : 1,
					"numoutlets" : 2,
					"outlettype" : [ "", "" ],
					"parameter_enable" : 1,
					"patching_rect" : [ 689.75, 343.674805, 97.25, 29.0 ],
					"presentation" : 1,
					"presentation_rect" : [ 475.75, 79.787598, 70.000015, 18.5 ],
					"saved_attribute_attributes" : 					{
						"valueof" : 						{
							"parameter_longname" : "live.text[6]",
							"parameter_shortname" : "live.text",
							"parameter_type" : 2,
							"parameter_mmax" : 1.0,
							"parameter_enum" : [ "val1", "val2" ],
							"parameter_initial_enable" : 1,
							"parameter_initial" : [ 1 ]
						}

					}
,
					"text" : "DUMPING",
					"texton" : "DONE",
					"varname" : "live.text[5]"
				}

			}
, 			{
				"box" : 				{
					"id" : "obj-122",
					"linecount" : 5,
					"maxclass" : "comment",
					"numinlets" : 1,
					"numoutlets" : 0,
					"patching_rect" : [ 816.0, 448.174805, 74.0, 78.0 ],
					"presentation" : 1,
					"presentation_linecount" : 2,
					"presentation_rect" : [ 418.75, 100.287598, 127.0, 35.0 ],
					"style" : "",
					"text" : "Set this number to save different VMM files"
				}

			}
, 			{
				"box" : 				{
					"id" : "obj-120",
					"maxclass" : "newobj",
					"numinlets" : 1,
					"numoutlets" : 1,
					"outlettype" : [ "" ],
					"patching_rect" : [ 912.0, 543.0, 55.0, 23.0 ],
					"style" : "",
					"text" : "deferlow"
				}

			}
, 			{
				"box" : 				{
					"id" : "obj-117",
					"maxclass" : "newobj",
					"numinlets" : 1,
					"numoutlets" : 3,
					"outlettype" : [ "bang", "bang", "bang" ],
					"patching_rect" : [ 912.0, 510.0, 134.0, 23.0 ],
					"style" : "",
					"text" : "t b b b"
				}

			}
, 			{
				"box" : 				{
					"id" : "obj-116",
					"maxclass" : "newobj",
					"numinlets" : 1,
					"numoutlets" : 1,
					"outlettype" : [ "" ],
					"patching_rect" : [ 855.0, 667.174805, 81.0, 23.0 ],
					"style" : "",
					"text" : "prepend write"
				}

			}
, 			{
				"box" : 				{
					"id" : "obj-115",
					"maxclass" : "newobj",
					"numinlets" : 1,
					"numoutlets" : 1,
					"outlettype" : [ "" ],
					"patching_rect" : [ 706.0, 547.0, 30.0, 23.0 ],
					"style" : "",
					"text" : "thru"
				}

			}
, 			{
				"box" : 				{
					"activebgcolor" : [ 0.701961, 0.415686, 0.886275, 1.0 ],
					"activebgoncolor" : [ 0.466667, 0.254902, 0.607843, 1.0 ],
					"fontname" : "Futura Medium",
					"fontsize" : 16.0,
					"id" : "obj-114",
					"maxclass" : "live.text",
					"mode" : 0,
					"numinlets" : 1,
					"numoutlets" : 2,
					"outlettype" : [ "", "" ],
					"parameter_enable" : 1,
					"patching_rect" : [ 912.0, 468.674805, 87.0, 28.0 ],
					"presentation" : 1,
					"presentation_rect" : [ 428.75, 139.287598, 87.0, 28.0 ],
					"saved_attribute_attributes" : 					{
						"valueof" : 						{
							"parameter_longname" : "live.text[7]",
							"parameter_shortname" : "live.text",
							"parameter_type" : 2,
							"parameter_mmax" : 1.0,
							"parameter_enum" : [ "val1", "val2" ]
						}

					}
,
					"text" : "SAVE",
					"texton" : "STOP",
					"varname" : "live.text[4]"
				}

			}
, 			{
				"box" : 				{
					"id" : "obj-113",
					"maxclass" : "newobj",
					"numinlets" : 1,
					"numoutlets" : 2,
					"outlettype" : [ "", "int" ],
					"patching_rect" : [ 855.0, 632.674805, 125.0, 23.0 ],
					"style" : "tatarism",
					"text" : "conformpath max boot"
				}

			}
, 			{
				"box" : 				{
					"id" : "obj-112",
					"maxclass" : "newobj",
					"numinlets" : 5,
					"numoutlets" : 2,
					"outlettype" : [ "", "" ],
					"patching_rect" : [ 855.0, 602.674805, 299.0, 23.0 ],
					"style" : "",
					"text" : "combine ./ data/VMM/VMM_ i _songlist .txt @triggers 4"
				}

			}
, 			{
				"box" : 				{
					"activebgcolor" : [ 0.701961, 0.415686, 0.886275, 1.0 ],
					"activebgoncolor" : [ 0.466667, 0.254902, 0.607843, 1.0 ],
					"fontname" : "Futura Medium",
					"fontsize" : 16.0,
					"id" : "obj-110",
					"maxclass" : "live.text",
					"mode" : 0,
					"numinlets" : 1,
					"numoutlets" : 2,
					"outlettype" : [ "", "" ],
					"parameter_enable" : 1,
					"patching_rect" : [ 611.75, 240.924805, 87.0, 28.0 ],
					"presentation" : 1,
					"presentation_rect" : [ 383.75, 75.037598, 87.0, 28.0 ],
					"saved_attribute_attributes" : 					{
						"valueof" : 						{
							"parameter_longname" : "live.text[8]",
							"parameter_shortname" : "live.text",
							"parameter_type" : 2,
							"parameter_mmax" : 1.0,
							"parameter_enum" : [ "val1", "val2" ]
						}

					}
,
					"text" : "TRAIN",
					"texton" : "STOP",
					"varname" : "live.text[3]"
				}

			}
, 			{
				"box" : 				{
					"color" : [ 0.941176, 0.690196, 0.196078, 1.0 ],
					"id" : "obj-101",
					"maxclass" : "newobj",
					"numinlets" : 1,
					"numoutlets" : 4,
					"outlettype" : [ "", "", "", "" ],
					"patching_rect" : [ 611.75, 515.962402, 182.0, 23.0 ],
					"saved_object_attributes" : 					{
						"embed" : 0
					}
,
					"style" : "",
					"text" : "coll #0-VMM-training-SOM-seq"
				}

			}
, 			{
				"box" : 				{
					"id" : "obj-98",
					"linecount" : 3,
					"maxclass" : "comment",
					"numinlets" : 1,
					"numoutlets" : 0,
					"patching_rect" : [ 59.5, 648.174805, 76.75, 49.0 ],
					"presentation" : 1,
					"presentation_linecount" : 2,
					"presentation_rect" : [ 200.0, 77.287598, 150.0, 35.0 ],
					"style" : "",
					"text" : "Added: 07 - data.hypercomplex"
				}

			}
, 			{
				"box" : 				{
					"id" : "obj-97",
					"maxclass" : "newobj",
					"numinlets" : 1,
					"numoutlets" : 1,
					"outlettype" : [ "" ],
					"patching_rect" : [ 59.5, 612.674805, 70.0, 23.0 ],
					"style" : "",
					"text" : "prepend set"
				}

			}
, 			{
				"box" : 				{
					"id" : "obj-96",
					"maxclass" : "message",
					"numinlets" : 2,
					"numoutlets" : 1,
					"outlettype" : [ "" ],
					"patching_rect" : [ 59.5, 583.674805, 65.0, 23.0 ],
					"style" : "",
					"text" : "Added: $1"
				}

			}
, 			{
				"box" : 				{
					"id" : "obj-93",
					"maxclass" : "message",
					"numinlets" : 2,
					"numoutlets" : 1,
					"outlettype" : [ "" ],
					"patching_rect" : [ 263.5, 933.537598, 29.5, 23.0 ],
					"style" : "",
					"text" : "set"
				}

			}
, 			{
				"box" : 				{
					"id" : "obj-85",
					"maxclass" : "message",
					"numinlets" : 2,
					"numoutlets" : 1,
					"outlettype" : [ "" ],
					"patching_rect" : [ 186.25, 904.362793, 150.0, 23.0 ],
					"style" : "",
					"text" : "Too many! Delete $1 songs."
				}

			}
, 			{
				"box" : 				{
					"id" : "obj-84",
					"maxclass" : "newobj",
					"numinlets" : 1,
					"numoutlets" : 1,
					"outlettype" : [ "" ],
					"patching_rect" : [ 186.25, 933.537598, 70.0, 23.0 ],
					"style" : "",
					"text" : "prepend set"
				}

			}
, 			{
				"box" : 				{
					"id" : "obj-83",
					"maxclass" : "newobj",
					"numinlets" : 1,
					"numoutlets" : 2,
					"outlettype" : [ "", "" ],
					"patching_rect" : [ 49.5, 850.537598, 172.0, 23.0 ],
					"style" : "",
					"text" : "if $i1>0 then $i1 else out2 bang"
				}

			}
, 			{
				"box" : 				{
					"id" : "obj-82",
					"maxclass" : "comment",
					"numinlets" : 1,
					"numoutlets" : 0,
					"patching_rect" : [ 186.25, 963.362793, 150.0, 21.0 ],
					"presentation" : 1,
					"presentation_rect" : [ 200.0, 123.287598, 150.0, 21.0 ],
					"style" : "",
					"textcolor" : [ 0.784314, 0.145098, 0.023529, 1.0 ]
				}

			}
, 			{
				"box" : 				{
					"id" : "obj-76",
					"maxclass" : "newobj",
					"numinlets" : 2,
					"numoutlets" : 1,
					"outlettype" : [ "int" ],
					"patching_rect" : [ 49.5, 818.862793, 29.5, 23.0 ],
					"style" : "",
					"text" : "- 10"
				}

			}
, 			{
				"box" : 				{
					"id" : "obj-75",
					"maxclass" : "comment",
					"numinlets" : 1,
					"numoutlets" : 0,
					"patching_rect" : [ 25.25, 963.362793, 150.0, 21.0 ],
					"presentation" : 1,
					"presentation_rect" : [ 200.0, 100.287598, 150.0, 21.0 ],
					"style" : "",
					"text" : "Number of songs added: 5"
				}

			}
, 			{
				"box" : 				{
					"id" : "obj-72",
					"maxclass" : "message",
					"numinlets" : 2,
					"numoutlets" : 1,
					"outlettype" : [ "" ],
					"patching_rect" : [ 25.25, 904.362793, 152.0, 23.0 ],
					"style" : "",
					"text" : "Number of songs added: $1"
				}

			}
, 			{
				"box" : 				{
					"id" : "obj-69",
					"maxclass" : "newobj",
					"numinlets" : 1,
					"numoutlets" : 1,
					"outlettype" : [ "" ],
					"patching_rect" : [ 25.25, 933.537598, 70.0, 23.0 ],
					"style" : "",
					"text" : "prepend set"
				}

			}
, 			{
				"box" : 				{
					"id" : "obj-62",
					"maxclass" : "newobj",
					"numinlets" : 1,
					"numoutlets" : 2,
					"outlettype" : [ "length", "" ],
					"patching_rect" : [ 25.25, 745.362793, 54.0, 23.0 ],
					"style" : "",
					"text" : "t length l"
				}

			}
, 			{
				"box" : 				{
					"activebgcolor" : [ 0.701961, 0.415686, 0.886275, 1.0 ],
					"activebgoncolor" : [ 0.466667, 0.254902, 0.607843, 1.0 ],
					"fontname" : "Futura Medium",
					"fontsize" : 16.0,
					"id" : "obj-41",
					"maxclass" : "live.text",
					"mode" : 0,
					"numinlets" : 1,
					"numoutlets" : 2,
					"outlettype" : [ "", "" ],
					"parameter_enable" : 1,
					"patching_rect" : [ 24.25, 515.962402, 87.0, 28.0 ],
					"presentation" : 1,
					"presentation_rect" : [ 200.0, 47.287598, 87.0, 28.0 ],
					"saved_attribute_attributes" : 					{
						"valueof" : 						{
							"parameter_longname" : "live.text[9]",
							"parameter_shortname" : "live.text",
							"parameter_type" : 2,
							"parameter_mmax" : 1.0,
							"parameter_enum" : [ "val1", "val2" ]
						}

					}
,
					"text" : "ADD",
					"texton" : "STOP",
					"varname" : "live.text[2]"
				}

			}
, 			{
				"box" : 				{
					"id" : "obj-26",
					"maxclass" : "newobj",
					"numinlets" : 1,
					"numoutlets" : 1,
					"outlettype" : [ "" ],
					"patching_rect" : [ 207.75, 619.5, 83.0, 23.0 ],
					"style" : "tatarism",
					"text" : "prepend open"
				}

			}
, 			{
				"box" : 				{
					"hiderwff" : 1,
					"id" : "obj-27",
					"maxclass" : "playbar",
					"numinlets" : 1,
					"numoutlets" : 2,
					"outlettype" : [ "", "int" ],
					"patching_rect" : [ 240.0, 651.5, 197.0, 22.0 ],
					"presentation" : 1,
					"presentation_rect" : [ 10.558235, 100.5, 169.0, 22.0 ],
					"style" : "tatarism"
				}

			}
, 			{
				"box" : 				{
					"id" : "obj-29",
					"maxclass" : "newobj",
					"numinlets" : 2,
					"numoutlets" : 2,
					"outlettype" : [ "signal", "bang" ],
					"patching_rect" : [ 207.75, 682.5, 50.0, 23.0 ],
					"saved_object_attributes" : 					{
						"basictuning" : 440,
						"followglobaltempo" : 0,
						"formantcorrection" : 0,
						"mode" : "basic",
						"originallength" : [ 76467.2, "ticks" ],
						"originaltempo" : 120.0,
						"pitchcorrection" : 0,
						"quality" : "basic",
						"timestretch" : [ 0 ]
					}
,
					"style" : "tatarism",
					"text" : "sfplay~"
				}

			}
, 			{
				"box" : 				{
					"fontsize" : 13.0,
					"id" : "obj-30",
					"maxclass" : "live.gain~",
					"numinlets" : 2,
					"numoutlets" : 5,
					"orientation" : 1,
					"outlettype" : [ "signal", "signal", "", "float", "list" ],
					"parameter_enable" : 1,
					"patching_rect" : [ 207.75, 711.0, 136.0, 42.0 ],
					"presentation" : 1,
					"presentation_rect" : [ 10.558235, 124.5, 169.0, 42.0 ],
					"saved_attribute_attributes" : 					{
						"valueof" : 						{
							"parameter_longname" : "live.gain~",
							"parameter_shortname" : "live.gain~",
							"parameter_type" : 0,
							"parameter_mmin" : -70.0,
							"parameter_mmax" : 6.0,
							"parameter_initial_enable" : 1,
							"parameter_initial" : [ -70 ],
							"parameter_unitstyle" : 4
						}

					}
,
					"showname" : 0,
					"varname" : "live.gain~"
				}

			}
, 			{
				"box" : 				{
					"id" : "obj-32",
					"maxclass" : "ezdac~",
					"numinlets" : 2,
					"numoutlets" : 0,
					"patching_rect" : [ 207.75, 782.5, 44.0, 44.0 ],
					"presentation" : 1,
					"presentation_rect" : [ 153.845825, 67.287598, 25.712402, 25.712402 ],
					"prototypename" : "helpfile",
					"style" : "tatarism"
				}

			}
, 			{
				"box" : 				{
					"id" : "obj-18",
					"maxclass" : "newobj",
					"numinlets" : 4,
					"numoutlets" : 2,
					"outlettype" : [ "", "" ],
					"patching_rect" : [ 207.75, 589.287598, 224.0, 23.0 ],
					"style" : "",
					"text" : "combine ./ audio/ myfile .wav @triggers 2"
				}

			}
, 			{
				"box" : 				{
					"id" : "obj-17",
					"maxclass" : "newobj",
					"numinlets" : 2,
					"numoutlets" : 2,
					"outlettype" : [ "", "" ],
					"patching_rect" : [ 24.25, 551.962402, 75.0, 23.0 ],
					"style" : "",
					"text" : "zl 32767 reg"
				}

			}
, 			{
				"box" : 				{
					"id" : "obj-16",
					"maxclass" : "newobj",
					"numinlets" : 2,
					"numoutlets" : 1,
					"outlettype" : [ "" ],
					"patching_rect" : [ 24.25, 612.674805, 29.5, 23.0 ],
					"style" : "",
					"text" : "join"
				}

			}
, 			{
				"box" : 				{
					"color" : [ 0.941176, 0.690196, 0.196078, 1.0 ],
					"id" : "obj-15",
					"maxclass" : "newobj",
					"numinlets" : 1,
					"numoutlets" : 4,
					"outlettype" : [ "", "", "", "" ],
					"patching_rect" : [ 25.25, 778.037598, 124.0, 23.0 ],
					"presentation" : 1,
					"presentation_rect" : [ 200.0, 143.5, 124.0, 23.0 ],
					"saved_object_attributes" : 					{
						"embed" : 0
					}
,
					"style" : "",
					"text" : "coll #0-Train-a-VMM"
				}

			}
, 			{
				"box" : 				{
					"id" : "obj-14",
					"maxclass" : "newobj",
					"numinlets" : 2,
					"numoutlets" : 2,
					"outlettype" : [ "", "" ],
					"patching_rect" : [ 25.25, 465.674805, 89.0, 23.0 ],
					"style" : "",
					"text" : "zl 32767 slice 1"
				}

			}
, 			{
				"box" : 				{
					"id" : "obj-13",
					"maxclass" : "newobj",
					"numinlets" : 1,
					"numoutlets" : 1,
					"outlettype" : [ "" ],
					"patching_rect" : [ 25.25, 711.0, 80.0, 23.0 ],
					"style" : "",
					"text" : "prepend store"
				}

			}
, 			{
				"box" : 				{
					"id" : "obj-3",
					"maxclass" : "number",
					"numinlets" : 1,
					"numoutlets" : 2,
					"outlettype" : [ "", "bang" ],
					"parameter_enable" : 0,
					"patching_rect" : [ 840.0, 529.962402, 50.0, 23.0 ],
					"presentation" : 1,
					"presentation_rect" : [ 366.75, 108.287598, 50.0, 23.0 ],
					"style" : ""
				}

			}
, 			{
				"box" : 				{
					"id" : "obj-79",
					"maxclass" : "newobj",
					"numinlets" : 2,
					"numoutlets" : 2,
					"outlettype" : [ "", "" ],
					"patching_rect" : [ 611.75, 552.674805, 89.0, 23.0 ],
					"style" : "",
					"text" : "zl 32767 slice 1"
				}

			}
, 			{
				"box" : 				{
					"id" : "obj-52",
					"maxclass" : "message",
					"numinlets" : 2,
					"numoutlets" : 1,
					"outlettype" : [ "" ],
					"patching_rect" : [ 634.75, 656.174805, 49.0, 23.0 ],
					"presentation" : 1,
					"presentation_rect" : [ 435.143433, 49.787598, 49.0, 23.0 ],
					"style" : "",
					"text" : "clearAll"
				}

			}
, 			{
				"box" : 				{
					"id" : "obj-86",
					"maxclass" : "newobj",
					"numinlets" : 1,
					"numoutlets" : 1,
					"outlettype" : [ "" ],
					"patching_rect" : [ 611.75, 627.5, 82.0, 23.0 ],
					"style" : "",
					"text" : "prepend learn"
				}

			}
, 			{
				"box" : 				{
					"id" : "obj-8",
					"maxclass" : "newobj",
					"numinlets" : 1,
					"numoutlets" : 1,
					"outlettype" : [ "" ],
					"patching_rect" : [ 224.25, 157.0, 97.0, 23.0 ],
					"style" : "",
					"text" : "loadmess BOOM"
				}

			}
, 			{
				"box" : 				{
					"id" : "obj-143",
					"maxclass" : "newobj",
					"numinlets" : 1,
					"numoutlets" : 1,
					"outlettype" : [ "" ],
					"patching_rect" : [ 148.25, 183.037598, 112.0, 23.0 ],
					"style" : "",
					"text" : "prepend \"Folder: \""
				}

			}
, 			{
				"box" : 				{
					"id" : "obj-144",
					"maxclass" : "newobj",
					"numinlets" : 1,
					"numoutlets" : 1,
					"outlettype" : [ "" ],
					"patching_rect" : [ 148.25, 214.962402, 75.0, 23.0 ],
					"style" : "",
					"text" : "prepend set"
				}

			}
, 			{
				"box" : 				{
					"fontsize" : 9.0,
					"id" : "obj-145",
					"linecount" : 2,
					"maxclass" : "comment",
					"numinlets" : 1,
					"numoutlets" : 0,
					"patching_rect" : [ 148.25, 251.5, 139.0, 30.0 ],
					"presentation" : 1,
					"presentation_linecount" : 3,
					"presentation_rect" : [ 170.25, 9.0, 71.0, 42.0 ],
					"style" : "",
					"text" : "Folder:  IDM-selected+Phil+Phil+Ikeda"
				}

			}
, 			{
				"box" : 				{
					"id" : "obj-1",
					"maxclass" : "newobj",
					"numinlets" : 1,
					"numoutlets" : 1,
					"outlettype" : [ "" ],
					"patching_rect" : [ 44.0, 50.0, 72.0, 23.0 ],
					"style" : "",
					"text" : "loadmess 0"
				}

			}
, 			{
				"box" : 				{
					"id" : "obj-49",
					"maxclass" : "newobj",
					"numinlets" : 2,
					"numoutlets" : 2,
					"outlettype" : [ "", "" ],
					"patching_rect" : [ 44.0, 183.037598, 41.0, 23.0 ],
					"style" : "",
					"text" : "zl.reg"
				}

			}
, 			{
				"box" : 				{
					"activebgcolor" : [ 0.701961, 0.415686, 0.886275, 1.0 ],
					"activebgoncolor" : [ 0.466667, 0.254902, 0.607843, 1.0 ],
					"fontname" : "Futura Medium",
					"fontsize" : 16.0,
					"id" : "obj-61",
					"maxclass" : "live.text",
					"mode" : 0,
					"numinlets" : 1,
					"numoutlets" : 2,
					"outlettype" : [ "", "" ],
					"parameter_enable" : 1,
					"patching_rect" : [ 44.0, 82.5, 87.0, 28.0 ],
					"presentation" : 1,
					"presentation_rect" : [ 83.616455, 5.5, 87.0, 28.0 ],
					"saved_attribute_attributes" : 					{
						"valueof" : 						{
							"parameter_longname" : "live.text[11]",
							"parameter_shortname" : "live.text",
							"parameter_type" : 2,
							"parameter_mmax" : 1.0,
							"parameter_enum" : [ "val1", "val2" ]
						}

					}
,
					"text" : "LOAD",
					"texton" : "STOP",
					"varname" : "live.text[1]"
				}

			}
, 			{
				"box" : 				{
					"comment" : "",
					"id" : "obj-64",
					"index" : 1,
					"maxclass" : "inlet",
					"numinlets" : 0,
					"numoutlets" : 1,
					"outlettype" : [ "" ],
					"patching_rect" : [ 66.0, 146.0, 30.0, 30.0 ],
					"style" : ""
				}

			}
, 			{
				"box" : 				{
					"id" : "obj-31",
					"maxclass" : "newobj",
					"numinlets" : 1,
					"numoutlets" : 2,
					"outlettype" : [ "", "int" ],
					"patching_rect" : [ 706.0, 616.674805, 125.0, 23.0 ],
					"style" : "tatarism",
					"text" : "conformpath max boot"
				}

			}
, 			{
				"box" : 				{
					"id" : "obj-65",
					"maxclass" : "newobj",
					"numinlets" : 4,
					"numoutlets" : 2,
					"outlettype" : [ "", "" ],
					"patching_rect" : [ 706.0, 577.674805, 225.0, 23.0 ],
					"style" : "tatarism",
					"text" : "combine ./ data/VMM_ 0 .ser @triggers 3"
				}

			}
, 			{
				"box" : 				{
					"id" : "obj-63",
					"maxclass" : "newobj",
					"numinlets" : 1,
					"numoutlets" : 1,
					"outlettype" : [ "" ],
					"patching_rect" : [ 706.0, 656.174805, 81.0, 23.0 ],
					"style" : "",
					"text" : "prepend write"
				}

			}
, 			{
				"box" : 				{
					"color" : [ 0.941176, 0.690196, 0.196078, 1.0 ],
					"id" : "obj-57",
					"maxclass" : "newobj",
					"numinlets" : 1,
					"numoutlets" : 4,
					"outlettype" : [ "", "", "", "" ],
					"patching_rect" : [ 611.75, 452.462402, 124.0, 23.0 ],
					"saved_object_attributes" : 					{
						"embed" : 0
					}
,
					"style" : "",
					"text" : "coll #0-Train-a-VMM"
				}

			}
, 			{
				"box" : 				{
					"id" : "obj-54",
					"maxclass" : "newobj",
					"numinlets" : 1,
					"numoutlets" : 3,
					"outlettype" : [ "dump", "clearAll", "int" ],
					"patching_rect" : [ 611.75, 293.174805, 97.0, 23.0 ],
					"style" : "",
					"text" : "t dump clearAll 0"
				}

			}
, 			{
				"box" : 				{
					"id" : "obj-185",
					"maxclass" : "newobj",
					"numinlets" : 1,
					"numoutlets" : 3,
					"outlettype" : [ "", "int", "" ],
					"patching_rect" : [ 611.75, 690.462402, 95.0, 23.0 ],
					"style" : "tatarism-20",
					"text" : "mxj VMMmeta 5"
				}

			}
, 			{
				"box" : 				{
					"id" : "obj-9",
					"maxclass" : "newobj",
					"numinlets" : 1,
					"numoutlets" : 1,
					"outlettype" : [ "" ],
					"patching_rect" : [ 25.25, 326.0, 79.0, 23.0 ],
					"style" : "",
					"text" : "prepend read"
				}

			}
, 			{
				"box" : 				{
					"color" : [ 0.941176, 0.690196, 0.196078, 1.0 ],
					"id" : "obj-7",
					"maxclass" : "newobj",
					"numinlets" : 1,
					"numoutlets" : 4,
					"outlettype" : [ "", "", "", "" ],
					"patching_rect" : [ 25.25, 418.0, 182.0, 23.0 ],
					"saved_object_attributes" : 					{
						"embed" : 0
					}
,
					"style" : "",
					"text" : "coll #0-VMM-training-SOM-seq"
				}

			}
, 			{
				"box" : 				{
					"id" : "obj-5",
					"maxclass" : "newobj",
					"numinlets" : 2,
					"numoutlets" : 2,
					"outlettype" : [ "", "" ],
					"patching_rect" : [ 25.25, 295.712402, 230.0, 23.0 ],
					"style" : "",
					"text" : "combine ./ data/VMM-training-SOM-seq.txt"
				}

			}
, 			{
				"box" : 				{
					"id" : "obj-141",
					"maxclass" : "comment",
					"numinlets" : 1,
					"numoutlets" : 0,
					"patching_rect" : [ 32.083313, 24.0, 150.0, 21.0 ],
					"presentation" : 1,
					"presentation_rect" : [ 3.61647, 9.0, 100.88353, 21.0 ],
					"style" : "",
					"text" : "VMM Training"
				}

			}
, 			{
				"box" : 				{
					"id" : "obj-35",
					"maxclass" : "newobj",
					"numinlets" : 1,
					"numoutlets" : 4,
					"outlettype" : [ "", "", "", "clear" ],
					"patching_rect" : [ 44.0, 230.962402, 94.249939, 23.0 ],
					"style" : "tatarism",
					"text" : "t s s s clear"
				}

			}
, 			{
				"box" : 				{
					"angle" : 270.0,
					"grad1" : [ 0.0, 0.0, 0.0, 1.0 ],
					"grad2" : [ 0.65098, 0.666667, 0.662745, 0.41 ],
					"id" : "obj-153",
					"maxclass" : "panel",
					"mode" : 1,
					"numinlets" : 1,
					"numoutlets" : 0,
					"patching_rect" : [ 47.083313, 39.0, 150.0, 21.0 ],
					"presentation" : 1,
					"presentation_rect" : [ 366.75, 0.0, 185.78688, 170.0 ],
					"proportion" : 0.39,
					"style" : ""
				}

			}
, 			{
				"box" : 				{
					"angle" : 270.0,
					"grad1" : [ 0.264542, 0.246412, 0.247132, 1.0 ],
					"grad2" : [ 0.65098, 0.666667, 0.662745, 0.41 ],
					"id" : "obj-78",
					"maxclass" : "panel",
					"mode" : 1,
					"numinlets" : 1,
					"numoutlets" : 0,
					"patching_rect" : [ 32.083313, 24.0, 150.0, 21.0 ],
					"presentation" : 1,
					"presentation_rect" : [ -2.38353, 0.0, 554.92041, 170.0 ],
					"proportion" : 0.39,
					"style" : ""
				}

			}
 ],
		"lines" : [ 			{
				"patchline" : 				{
					"destination" : [ "obj-61", 0 ],
					"source" : [ "obj-1", 0 ]
				}

			}
, 			{
				"patchline" : 				{
					"destination" : [ "obj-79", 0 ],
					"source" : [ "obj-101", 0 ]
				}

			}
, 			{
				"patchline" : 				{
					"destination" : [ "obj-128", 0 ],
					"source" : [ "obj-108", 0 ]
				}

			}
, 			{
				"patchline" : 				{
					"destination" : [ "obj-137", 0 ],
					"source" : [ "obj-11", 1 ]
				}

			}
, 			{
				"patchline" : 				{
					"destination" : [ "obj-150", 0 ],
					"source" : [ "obj-11", 0 ]
				}

			}
, 			{
				"patchline" : 				{
					"destination" : [ "obj-54", 0 ],
					"source" : [ "obj-110", 0 ]
				}

			}
, 			{
				"patchline" : 				{
					"destination" : [ "obj-113", 0 ],
					"source" : [ "obj-112", 0 ]
				}

			}
, 			{
				"patchline" : 				{
					"destination" : [ "obj-116", 0 ],
					"source" : [ "obj-113", 0 ]
				}

			}
, 			{
				"patchline" : 				{
					"destination" : [ "obj-117", 0 ],
					"source" : [ "obj-114", 0 ]
				}

			}
, 			{
				"patchline" : 				{
					"destination" : [ "obj-112", 0 ],
					"order" : 0,
					"source" : [ "obj-115", 0 ]
				}

			}
, 			{
				"patchline" : 				{
					"destination" : [ "obj-2", 0 ],
					"order" : 2,
					"source" : [ "obj-115", 0 ]
				}

			}
, 			{
				"patchline" : 				{
					"destination" : [ "obj-65", 0 ],
					"order" : 1,
					"source" : [ "obj-115", 0 ]
				}

			}
, 			{
				"patchline" : 				{
					"destination" : [ "obj-57", 0 ],
					"source" : [ "obj-116", 0 ]
				}

			}
, 			{
				"patchline" : 				{
					"destination" : [ "obj-112", 4 ],
					"source" : [ "obj-117", 1 ]
				}

			}
, 			{
				"patchline" : 				{
					"destination" : [ "obj-120", 0 ],
					"source" : [ "obj-117", 0 ]
				}

			}
, 			{
				"patchline" : 				{
					"destination" : [ "obj-2", 3 ],
					"source" : [ "obj-117", 2 ]
				}

			}
, 			{
				"patchline" : 				{
					"destination" : [ "obj-65", 3 ],
					"source" : [ "obj-120", 0 ]
				}

			}
, 			{
				"patchline" : 				{
					"destination" : [ "obj-62", 0 ],
					"source" : [ "obj-13", 0 ]
				}

			}
, 			{
				"patchline" : 				{
					"destination" : [ "obj-108", 0 ],
					"source" : [ "obj-132", 0 ]
				}

			}
, 			{
				"patchline" : 				{
					"destination" : [ "obj-7", 0 ],
					"source" : [ "obj-137", 0 ]
				}

			}
, 			{
				"patchline" : 				{
					"destination" : [ "obj-137", 0 ],
					"source" : [ "obj-138", 0 ]
				}

			}
, 			{
				"patchline" : 				{
					"destination" : [ "obj-151", 0 ],
					"source" : [ "obj-139", 1 ]
				}

			}
, 			{
				"patchline" : 				{
					"destination" : [ "obj-152", 0 ],
					"source" : [ "obj-139", 0 ]
				}

			}
, 			{
				"patchline" : 				{
					"destination" : [ "obj-10", 1 ],
					"order" : 1,
					"source" : [ "obj-14", 0 ]
				}

			}
, 			{
				"patchline" : 				{
					"destination" : [ "obj-17", 1 ],
					"order" : 2,
					"source" : [ "obj-14", 0 ]
				}

			}
, 			{
				"patchline" : 				{
					"destination" : [ "obj-18", 2 ],
					"order" : 0,
					"source" : [ "obj-14", 0 ]
				}

			}
, 			{
				"patchline" : 				{
					"destination" : [ "obj-139", 0 ],
					"source" : [ "obj-142", 0 ]
				}

			}
, 			{
				"patchline" : 				{
					"destination" : [ "obj-144", 0 ],
					"source" : [ "obj-143", 0 ]
				}

			}
, 			{
				"patchline" : 				{
					"destination" : [ "obj-145", 0 ],
					"source" : [ "obj-144", 0 ]
				}

			}
, 			{
				"patchline" : 				{
					"destination" : [ "obj-72", 0 ],
					"order" : 1,
					"source" : [ "obj-15", 0 ]
				}

			}
, 			{
				"patchline" : 				{
					"destination" : [ "obj-76", 0 ],
					"order" : 0,
					"source" : [ "obj-15", 0 ]
				}

			}
, 			{
				"patchline" : 				{
					"destination" : [ "obj-142", 0 ],
					"source" : [ "obj-150", 0 ]
				}

			}
, 			{
				"patchline" : 				{
					"destination" : [ "obj-138", 0 ],
					"source" : [ "obj-151", 0 ]
				}

			}
, 			{
				"patchline" : 				{
					"destination" : [ "obj-151", 1 ],
					"source" : [ "obj-152", 0 ]
				}

			}
, 			{
				"patchline" : 				{
					"destination" : [ "obj-13", 0 ],
					"source" : [ "obj-16", 0 ]
				}

			}
, 			{
				"patchline" : 				{
					"destination" : [ "obj-16", 0 ],
					"order" : 1,
					"source" : [ "obj-17", 0 ]
				}

			}
, 			{
				"patchline" : 				{
					"destination" : [ "obj-96", 0 ],
					"order" : 0,
					"source" : [ "obj-17", 0 ]
				}

			}
, 			{
				"patchline" : 				{
					"destination" : [ "obj-26", 0 ],
					"source" : [ "obj-18", 0 ]
				}

			}
, 			{
				"patchline" : 				{
					"destination" : [ "obj-4", 0 ],
					"source" : [ "obj-2", 0 ]
				}

			}
, 			{
				"patchline" : 				{
					"destination" : [ "obj-11", 0 ],
					"source" : [ "obj-21", 0 ]
				}

			}
, 			{
				"patchline" : 				{
					"destination" : [ "obj-29", 0 ],
					"source" : [ "obj-26", 0 ]
				}

			}
, 			{
				"patchline" : 				{
					"destination" : [ "obj-29", 0 ],
					"source" : [ "obj-27", 0 ]
				}

			}
, 			{
				"patchline" : 				{
					"destination" : [ "obj-30", 0 ],
					"source" : [ "obj-29", 0 ]
				}

			}
, 			{
				"patchline" : 				{
					"destination" : [ "obj-112", 2 ],
					"order" : 0,
					"source" : [ "obj-3", 0 ]
				}

			}
, 			{
				"patchline" : 				{
					"destination" : [ "obj-2", 2 ],
					"order" : 2,
					"source" : [ "obj-3", 0 ]
				}

			}
, 			{
				"patchline" : 				{
					"destination" : [ "obj-65", 2 ],
					"order" : 1,
					"source" : [ "obj-3", 0 ]
				}

			}
, 			{
				"patchline" : 				{
					"destination" : [ "obj-32", 1 ],
					"order" : 0,
					"source" : [ "obj-30", 0 ]
				}

			}
, 			{
				"patchline" : 				{
					"destination" : [ "obj-32", 0 ],
					"order" : 1,
					"source" : [ "obj-30", 0 ]
				}

			}
, 			{
				"patchline" : 				{
					"destination" : [ "obj-63", 0 ],
					"source" : [ "obj-31", 0 ]
				}

			}
, 			{
				"patchline" : 				{
					"destination" : [ "obj-115", 0 ],
					"source" : [ "obj-35", 1 ]
				}

			}
, 			{
				"patchline" : 				{
					"destination" : [ "obj-18", 0 ],
					"source" : [ "obj-35", 0 ]
				}

			}
, 			{
				"patchline" : 				{
					"destination" : [ "obj-5", 0 ],
					"source" : [ "obj-35", 2 ]
				}

			}
, 			{
				"patchline" : 				{
					"destination" : [ "obj-7", 0 ],
					"source" : [ "obj-35", 3 ]
				}

			}
, 			{
				"patchline" : 				{
					"destination" : [ "obj-143", 0 ],
					"source" : [ "obj-36", 0 ]
				}

			}
, 			{
				"patchline" : 				{
					"destination" : [ "obj-57", 0 ],
					"source" : [ "obj-4", 0 ]
				}

			}
, 			{
				"patchline" : 				{
					"destination" : [ "obj-17", 0 ],
					"source" : [ "obj-41", 0 ]
				}

			}
, 			{
				"patchline" : 				{
					"destination" : [ "obj-35", 0 ],
					"source" : [ "obj-49", 0 ]
				}

			}
, 			{
				"patchline" : 				{
					"destination" : [ "obj-9", 0 ],
					"source" : [ "obj-5", 0 ]
				}

			}
, 			{
				"patchline" : 				{
					"destination" : [ "obj-185", 0 ],
					"source" : [ "obj-52", 0 ]
				}

			}
, 			{
				"patchline" : 				{
					"destination" : [ "obj-128", 0 ],
					"source" : [ "obj-54", 2 ]
				}

			}
, 			{
				"patchline" : 				{
					"destination" : [ "obj-185", 0 ],
					"source" : [ "obj-54", 1 ]
				}

			}
, 			{
				"patchline" : 				{
					"destination" : [ "obj-68", 0 ],
					"source" : [ "obj-54", 0 ]
				}

			}
, 			{
				"patchline" : 				{
					"destination" : [ "obj-101", 0 ],
					"source" : [ "obj-57", 0 ]
				}

			}
, 			{
				"patchline" : 				{
					"destination" : [ "obj-132", 0 ],
					"source" : [ "obj-57", 3 ]
				}

			}
, 			{
				"patchline" : 				{
					"destination" : [ "obj-49", 0 ],
					"source" : [ "obj-61", 0 ]
				}

			}
, 			{
				"patchline" : 				{
					"destination" : [ "obj-15", 0 ],
					"source" : [ "obj-62", 1 ]
				}

			}
, 			{
				"patchline" : 				{
					"destination" : [ "obj-15", 0 ],
					"source" : [ "obj-62", 0 ]
				}

			}
, 			{
				"patchline" : 				{
					"destination" : [ "obj-185", 0 ],
					"source" : [ "obj-63", 0 ]
				}

			}
, 			{
				"patchline" : 				{
					"destination" : [ "obj-36", 0 ],
					"order" : 0,
					"source" : [ "obj-64", 0 ]
				}

			}
, 			{
				"patchline" : 				{
					"destination" : [ "obj-49", 1 ],
					"order" : 1,
					"source" : [ "obj-64", 0 ]
				}

			}
, 			{
				"patchline" : 				{
					"destination" : [ "obj-31", 0 ],
					"source" : [ "obj-65", 0 ]
				}

			}
, 			{
				"patchline" : 				{
					"destination" : [ "obj-57", 0 ],
					"source" : [ "obj-68", 0 ]
				}

			}
, 			{
				"patchline" : 				{
					"destination" : [ "obj-75", 0 ],
					"source" : [ "obj-69", 0 ]
				}

			}
, 			{
				"patchline" : 				{
					"destination" : [ "obj-11", 0 ],
					"source" : [ "obj-7", 2 ]
				}

			}
, 			{
				"patchline" : 				{
					"destination" : [ "obj-14", 0 ],
					"source" : [ "obj-7", 0 ]
				}

			}
, 			{
				"patchline" : 				{
					"destination" : [ "obj-16", 1 ],
					"source" : [ "obj-7", 1 ]
				}

			}
, 			{
				"patchline" : 				{
					"destination" : [ "obj-86", 0 ],
					"source" : [ "obj-70", 0 ]
				}

			}
, 			{
				"patchline" : 				{
					"destination" : [ "obj-69", 0 ],
					"source" : [ "obj-72", 0 ]
				}

			}
, 			{
				"patchline" : 				{
					"destination" : [ "obj-83", 0 ],
					"source" : [ "obj-76", 0 ]
				}

			}
, 			{
				"patchline" : 				{
					"destination" : [ "obj-70", 0 ],
					"source" : [ "obj-79", 1 ]
				}

			}
, 			{
				"patchline" : 				{
					"destination" : [ "obj-143", 0 ],
					"source" : [ "obj-8", 0 ]
				}

			}
, 			{
				"patchline" : 				{
					"destination" : [ "obj-85", 0 ],
					"source" : [ "obj-83", 0 ]
				}

			}
, 			{
				"patchline" : 				{
					"destination" : [ "obj-93", 0 ],
					"source" : [ "obj-83", 1 ]
				}

			}
, 			{
				"patchline" : 				{
					"destination" : [ "obj-82", 0 ],
					"source" : [ "obj-84", 0 ]
				}

			}
, 			{
				"patchline" : 				{
					"destination" : [ "obj-84", 0 ],
					"source" : [ "obj-85", 0 ]
				}

			}
, 			{
				"patchline" : 				{
					"destination" : [ "obj-185", 0 ],
					"source" : [ "obj-86", 0 ]
				}

			}
, 			{
				"patchline" : 				{
					"destination" : [ "obj-7", 0 ],
					"source" : [ "obj-9", 0 ]
				}

			}
, 			{
				"patchline" : 				{
					"destination" : [ "obj-82", 0 ],
					"source" : [ "obj-93", 0 ]
				}

			}
, 			{
				"patchline" : 				{
					"destination" : [ "obj-97", 0 ],
					"source" : [ "obj-96", 0 ]
				}

			}
, 			{
				"patchline" : 				{
					"destination" : [ "obj-98", 0 ],
					"source" : [ "obj-97", 0 ]
				}

			}
 ],
		"styles" : [ 			{
				"name" : "AudioStatus_Menu",
				"default" : 				{
					"bgfillcolor" : 					{
						"type" : "color",
						"color" : [ 0.294118, 0.313726, 0.337255, 1 ],
						"color1" : [ 0.454902, 0.462745, 0.482353, 0.0 ],
						"color2" : [ 0.290196, 0.309804, 0.301961, 1.0 ],
						"angle" : 270.0,
						"proportion" : 0.39,
						"autogradient" : 0
					}

				}
,
				"parentstyle" : "",
				"multi" : 0
			}
, 			{
				"name" : "Jamoma_highlighted_orange",
				"default" : 				{
					"accentcolor" : [ 1.0, 0.5, 0.0, 1.0 ]
				}
,
				"parentstyle" : "",
				"multi" : 0
			}
, 			{
				"name" : "tatarism",
				"default" : 				{
					"textcolor_inverse" : [ 0.862745, 0.870588, 0.878431, 1.0 ],
					"fontsize" : [ 11.0 ],
					"fontname" : [ "Futura Medium" ],
					"elementcolor" : [ 0.589653, 0.589635, 0.589645, 1.0 ],
					"textcolor" : [ 1.0, 1.0, 1.0, 1.0 ],
					"bgcolor" : [ 0.19771, 0.188048, 0.201856, 1.0 ],
					"color" : [ 0.701961, 0.415686, 0.886275, 1.0 ]
				}
,
				"parentstyle" : "",
				"multi" : 0
			}
, 			{
				"name" : "tatarism-1",
				"default" : 				{
					"textcolor_inverse" : [ 0.862745, 0.870588, 0.878431, 1.0 ],
					"fontname" : [ "Futura Medium" ],
					"elementcolor" : [ 0.589653, 0.589635, 0.589645, 1.0 ],
					"textcolor" : [ 1.0, 1.0, 1.0, 1.0 ],
					"bgcolor" : [ 0.19771, 0.188048, 0.201856, 1.0 ],
					"color" : [ 0.701961, 0.415686, 0.886275, 1.0 ]
				}
,
				"parentstyle" : "",
				"multi" : 0
			}
, 			{
				"name" : "tatarism-1-1",
				"default" : 				{
					"textcolor_inverse" : [ 0.862745, 0.870588, 0.878431, 1.0 ],
					"fontname" : [ "Futura Medium" ],
					"elementcolor" : [ 0.589653, 0.589635, 0.589645, 1.0 ],
					"textcolor" : [ 1.0, 1.0, 1.0, 1.0 ],
					"bgfillcolor" : 					{
						"type" : "gradient",
						"color" : [ 0.290196, 0.309804, 0.301961, 1.0 ],
						"color1" : [ 0.372549, 0.196078, 0.486275, 1.0 ],
						"color2" : [ 0.290196, 0.309804, 0.301961, 1.0 ],
						"angle" : 270.0,
						"proportion" : 0.39,
						"autogradient" : 0
					}
,
					"bgcolor" : [ 0.19771, 0.188048, 0.201856, 1.0 ],
					"color" : [ 0.701961, 0.415686, 0.886275, 1.0 ]
				}
,
				"parentstyle" : "",
				"multi" : 0
			}
, 			{
				"name" : "tatarism-1-1-1",
				"default" : 				{
					"textcolor_inverse" : [ 0.862745, 0.870588, 0.878431, 1.0 ],
					"fontname" : [ "Futura Medium" ],
					"elementcolor" : [ 0.589653, 0.589635, 0.589645, 1.0 ],
					"textcolor" : [ 1.0, 1.0, 1.0, 1.0 ],
					"bgcolor" : [ 0.19771, 0.188048, 0.201856, 1.0 ],
					"color" : [ 0.701961, 0.415686, 0.886275, 1.0 ]
				}
,
				"parentstyle" : "",
				"multi" : 0
			}
, 			{
				"name" : "tatarism-1-1-1-1",
				"default" : 				{
					"textcolor_inverse" : [ 0.862745, 0.870588, 0.878431, 1.0 ],
					"fontname" : [ "Futura Medium" ],
					"elementcolor" : [ 0.589653, 0.589635, 0.589645, 1.0 ],
					"textcolor" : [ 1.0, 1.0, 1.0, 1.0 ],
					"bgfillcolor" : 					{
						"type" : "gradient",
						"color" : [ 0.290196, 0.309804, 0.301961, 1.0 ],
						"color1" : [ 0.372549, 0.196078, 0.486275, 1.0 ],
						"color2" : [ 0.290196, 0.309804, 0.301961, 1.0 ],
						"angle" : 270.0,
						"proportion" : 0.39,
						"autogradient" : 0
					}
,
					"bgcolor" : [ 0.19771, 0.188048, 0.201856, 1.0 ],
					"color" : [ 0.701961, 0.415686, 0.886275, 1.0 ]
				}
,
				"parentstyle" : "",
				"multi" : 0
			}
, 			{
				"name" : "tatarism-1-1-1-1-1",
				"default" : 				{
					"textcolor_inverse" : [ 0.862745, 0.870588, 0.878431, 1.0 ],
					"fontname" : [ "Futura Medium" ],
					"elementcolor" : [ 0.589653, 0.589635, 0.589645, 1.0 ],
					"textcolor" : [ 1.0, 1.0, 1.0, 1.0 ],
					"bgcolor" : [ 0.19771, 0.188048, 0.201856, 1.0 ],
					"color" : [ 0.701961, 0.415686, 0.886275, 1.0 ]
				}
,
				"parentstyle" : "",
				"multi" : 0
			}
, 			{
				"name" : "tatarism-1-1-1-1-1-1",
				"default" : 				{
					"textcolor_inverse" : [ 0.862745, 0.870588, 0.878431, 1.0 ],
					"fontname" : [ "Futura Medium" ],
					"elementcolor" : [ 0.589653, 0.589635, 0.589645, 1.0 ],
					"textcolor" : [ 1.0, 1.0, 1.0, 1.0 ],
					"bgfillcolor" : 					{
						"type" : "gradient",
						"color" : [ 0.290196, 0.309804, 0.301961, 1.0 ],
						"color1" : [ 0.372549, 0.196078, 0.486275, 1.0 ],
						"color2" : [ 0.290196, 0.309804, 0.301961, 1.0 ],
						"angle" : 270.0,
						"proportion" : 0.39,
						"autogradient" : 0
					}
,
					"bgcolor" : [ 0.19771, 0.188048, 0.201856, 1.0 ],
					"color" : [ 0.701961, 0.415686, 0.886275, 1.0 ]
				}
,
				"parentstyle" : "",
				"multi" : 0
			}
, 			{
				"name" : "tatarism-1-1-1-1-1-1-1",
				"default" : 				{
					"textcolor_inverse" : [ 0.862745, 0.870588, 0.878431, 1.0 ],
					"fontname" : [ "Futura Medium" ],
					"elementcolor" : [ 0.589653, 0.589635, 0.589645, 1.0 ],
					"textcolor" : [ 1.0, 1.0, 1.0, 1.0 ],
					"bgcolor" : [ 0.19771, 0.188048, 0.201856, 1.0 ],
					"color" : [ 0.701961, 0.415686, 0.886275, 1.0 ]
				}
,
				"parentstyle" : "",
				"multi" : 0
			}
, 			{
				"name" : "tatarism-1-1-1-1-1-1-2",
				"default" : 				{
					"textcolor_inverse" : [ 0.862745, 0.870588, 0.878431, 1.0 ],
					"fontname" : [ "Futura Medium" ],
					"elementcolor" : [ 0.589653, 0.589635, 0.589645, 1.0 ],
					"textcolor" : [ 1.0, 1.0, 1.0, 1.0 ],
					"bgcolor" : [ 0.19771, 0.188048, 0.201856, 1.0 ],
					"color" : [ 0.701961, 0.415686, 0.886275, 1.0 ]
				}
,
				"parentstyle" : "",
				"multi" : 0
			}
, 			{
				"name" : "tatarism-1-1-1-1-1-2",
				"default" : 				{
					"textcolor_inverse" : [ 0.862745, 0.870588, 0.878431, 1.0 ],
					"fontname" : [ "Futura Medium" ],
					"elementcolor" : [ 0.589653, 0.589635, 0.589645, 1.0 ],
					"textcolor" : [ 1.0, 1.0, 1.0, 1.0 ],
					"bgfillcolor" : 					{
						"type" : "gradient",
						"color" : [ 0.290196, 0.309804, 0.301961, 1.0 ],
						"color1" : [ 0.372549, 0.196078, 0.486275, 1.0 ],
						"color2" : [ 0.290196, 0.309804, 0.301961, 1.0 ],
						"angle" : 270.0,
						"proportion" : 0.39,
						"autogradient" : 0
					}
,
					"bgcolor" : [ 0.19771, 0.188048, 0.201856, 1.0 ],
					"color" : [ 0.701961, 0.415686, 0.886275, 1.0 ]
				}
,
				"parentstyle" : "",
				"multi" : 0
			}
, 			{
				"name" : "tatarism-1-1-1-1-2",
				"default" : 				{
					"textcolor_inverse" : [ 0.862745, 0.870588, 0.878431, 1.0 ],
					"fontname" : [ "Futura Medium" ],
					"elementcolor" : [ 0.589653, 0.589635, 0.589645, 1.0 ],
					"textcolor" : [ 1.0, 1.0, 1.0, 1.0 ],
					"bgcolor" : [ 0.19771, 0.188048, 0.201856, 1.0 ],
					"color" : [ 0.701961, 0.415686, 0.886275, 1.0 ]
				}
,
				"parentstyle" : "",
				"multi" : 0
			}
, 			{
				"name" : "tatarism-1-1-1-1-3",
				"default" : 				{
					"textcolor_inverse" : [ 0.862745, 0.870588, 0.878431, 1.0 ],
					"fontname" : [ "Futura Medium" ],
					"elementcolor" : [ 0.589653, 0.589635, 0.589645, 1.0 ],
					"textcolor" : [ 1.0, 1.0, 1.0, 1.0 ],
					"bgcolor" : [ 0.19771, 0.188048, 0.201856, 1.0 ],
					"color" : [ 0.701961, 0.415686, 0.886275, 1.0 ]
				}
,
				"parentstyle" : "",
				"multi" : 0
			}
, 			{
				"name" : "tatarism-1-1-1-1-4",
				"default" : 				{
					"textcolor_inverse" : [ 0.862745, 0.870588, 0.878431, 1.0 ],
					"fontname" : [ "Futura Medium" ],
					"elementcolor" : [ 0.589653, 0.589635, 0.589645, 1.0 ],
					"textcolor" : [ 1.0, 1.0, 1.0, 1.0 ],
					"bgcolor" : [ 0.19771, 0.188048, 0.201856, 1.0 ],
					"color" : [ 0.701961, 0.415686, 0.886275, 1.0 ]
				}
,
				"parentstyle" : "",
				"multi" : 0
			}
, 			{
				"name" : "tatarism-1-1-1-1-5",
				"default" : 				{
					"textcolor_inverse" : [ 0.862745, 0.870588, 0.878431, 1.0 ],
					"fontname" : [ "Futura Medium" ],
					"elementcolor" : [ 0.589653, 0.589635, 0.589645, 1.0 ],
					"textcolor" : [ 1.0, 1.0, 1.0, 1.0 ],
					"bgcolor" : [ 0.19771, 0.188048, 0.201856, 1.0 ],
					"color" : [ 0.701961, 0.415686, 0.886275, 1.0 ]
				}
,
				"parentstyle" : "",
				"multi" : 0
			}
, 			{
				"name" : "tatarism-1-1-1-2",
				"default" : 				{
					"textcolor_inverse" : [ 0.862745, 0.870588, 0.878431, 1.0 ],
					"fontname" : [ "Futura Medium" ],
					"elementcolor" : [ 0.589653, 0.589635, 0.589645, 1.0 ],
					"textcolor" : [ 1.0, 1.0, 1.0, 1.0 ],
					"bgcolor" : [ 0.19771, 0.188048, 0.201856, 1.0 ],
					"color" : [ 0.701961, 0.415686, 0.886275, 1.0 ]
				}
,
				"parentstyle" : "",
				"multi" : 0
			}
, 			{
				"name" : "tatarism-1-1-1-3",
				"default" : 				{
					"textcolor_inverse" : [ 0.862745, 0.870588, 0.878431, 1.0 ],
					"fontname" : [ "Futura Medium" ],
					"elementcolor" : [ 0.589653, 0.589635, 0.589645, 1.0 ],
					"textcolor" : [ 1.0, 1.0, 1.0, 1.0 ],
					"bgfillcolor" : 					{
						"type" : "gradient",
						"color" : [ 0.290196, 0.309804, 0.301961, 1.0 ],
						"color1" : [ 0.372549, 0.196078, 0.486275, 1.0 ],
						"color2" : [ 0.290196, 0.309804, 0.301961, 1.0 ],
						"angle" : 270.0,
						"proportion" : 0.39,
						"autogradient" : 0
					}
,
					"bgcolor" : [ 0.19771, 0.188048, 0.201856, 1.0 ],
					"color" : [ 0.701961, 0.415686, 0.886275, 1.0 ]
				}
,
				"parentstyle" : "",
				"multi" : 0
			}
, 			{
				"name" : "tatarism-1-1-1-4",
				"default" : 				{
					"textcolor_inverse" : [ 0.862745, 0.870588, 0.878431, 1.0 ],
					"fontname" : [ "Futura Medium" ],
					"elementcolor" : [ 0.589653, 0.589635, 0.589645, 1.0 ],
					"textcolor" : [ 1.0, 1.0, 1.0, 1.0 ],
					"bgfillcolor" : 					{
						"type" : "gradient",
						"color" : [ 0.290196, 0.309804, 0.301961, 1.0 ],
						"color1" : [ 0.372549, 0.196078, 0.486275, 1.0 ],
						"color2" : [ 0.290196, 0.309804, 0.301961, 1.0 ],
						"angle" : 270.0,
						"proportion" : 0.39,
						"autogradient" : 0
					}
,
					"bgcolor" : [ 0.19771, 0.188048, 0.201856, 1.0 ],
					"color" : [ 0.701961, 0.415686, 0.886275, 1.0 ]
				}
,
				"parentstyle" : "",
				"multi" : 0
			}
, 			{
				"name" : "tatarism-1-1-1-5",
				"default" : 				{
					"textcolor_inverse" : [ 0.862745, 0.870588, 0.878431, 1.0 ],
					"fontname" : [ "Futura Medium" ],
					"elementcolor" : [ 0.589653, 0.589635, 0.589645, 1.0 ],
					"textcolor" : [ 1.0, 1.0, 1.0, 1.0 ],
					"bgfillcolor" : 					{
						"type" : "gradient",
						"color" : [ 0.290196, 0.309804, 0.301961, 1.0 ],
						"color1" : [ 0.372549, 0.196078, 0.486275, 1.0 ],
						"color2" : [ 0.290196, 0.309804, 0.301961, 1.0 ],
						"angle" : 270.0,
						"proportion" : 0.39,
						"autogradient" : 0
					}
,
					"bgcolor" : [ 0.19771, 0.188048, 0.201856, 1.0 ],
					"color" : [ 0.701961, 0.415686, 0.886275, 1.0 ]
				}
,
				"parentstyle" : "",
				"multi" : 0
			}
, 			{
				"name" : "tatarism-1-1-1-6",
				"default" : 				{
					"textcolor_inverse" : [ 0.862745, 0.870588, 0.878431, 1.0 ],
					"fontname" : [ "Futura Medium" ],
					"elementcolor" : [ 0.589653, 0.589635, 0.589645, 1.0 ],
					"textcolor" : [ 1.0, 1.0, 1.0, 1.0 ],
					"bgfillcolor" : 					{
						"type" : "gradient",
						"color" : [ 0.290196, 0.309804, 0.301961, 1.0 ],
						"color1" : [ 0.372549, 0.196078, 0.486275, 1.0 ],
						"color2" : [ 0.290196, 0.309804, 0.301961, 1.0 ],
						"angle" : 270.0,
						"proportion" : 0.39,
						"autogradient" : 0
					}
,
					"bgcolor" : [ 0.19771, 0.188048, 0.201856, 1.0 ],
					"color" : [ 0.701961, 0.415686, 0.886275, 1.0 ]
				}
,
				"parentstyle" : "",
				"multi" : 0
			}
, 			{
				"name" : "tatarism-1-1-2",
				"default" : 				{
					"textcolor_inverse" : [ 0.862745, 0.870588, 0.878431, 1.0 ],
					"fontname" : [ "Futura Medium" ],
					"elementcolor" : [ 0.589653, 0.589635, 0.589645, 1.0 ],
					"textcolor" : [ 1.0, 1.0, 1.0, 1.0 ],
					"bgfillcolor" : 					{
						"type" : "gradient",
						"color" : [ 0.290196, 0.309804, 0.301961, 1.0 ],
						"color1" : [ 0.372549, 0.196078, 0.486275, 1.0 ],
						"color2" : [ 0.290196, 0.309804, 0.301961, 1.0 ],
						"angle" : 270.0,
						"proportion" : 0.39,
						"autogradient" : 0
					}
,
					"bgcolor" : [ 0.19771, 0.188048, 0.201856, 1.0 ],
					"color" : [ 0.701961, 0.415686, 0.886275, 1.0 ]
				}
,
				"parentstyle" : "",
				"multi" : 0
			}
, 			{
				"name" : "tatarism-1-1-3",
				"default" : 				{
					"textcolor_inverse" : [ 0.862745, 0.870588, 0.878431, 1.0 ],
					"fontname" : [ "Futura Medium" ],
					"elementcolor" : [ 0.589653, 0.589635, 0.589645, 1.0 ],
					"textcolor" : [ 1.0, 1.0, 1.0, 1.0 ],
					"bgcolor" : [ 0.19771, 0.188048, 0.201856, 1.0 ],
					"color" : [ 0.701961, 0.415686, 0.886275, 1.0 ]
				}
,
				"parentstyle" : "",
				"multi" : 0
			}
, 			{
				"name" : "tatarism-1-1-4",
				"default" : 				{
					"textcolor_inverse" : [ 0.862745, 0.870588, 0.878431, 1.0 ],
					"fontname" : [ "Futura Medium" ],
					"elementcolor" : [ 0.589653, 0.589635, 0.589645, 1.0 ],
					"textcolor" : [ 1.0, 1.0, 1.0, 1.0 ],
					"bgcolor" : [ 0.19771, 0.188048, 0.201856, 1.0 ],
					"color" : [ 0.701961, 0.415686, 0.886275, 1.0 ]
				}
,
				"parentstyle" : "",
				"multi" : 0
			}
, 			{
				"name" : "tatarism-1-1-5",
				"default" : 				{
					"textcolor_inverse" : [ 0.862745, 0.870588, 0.878431, 1.0 ],
					"fontname" : [ "Futura Medium" ],
					"elementcolor" : [ 0.589653, 0.589635, 0.589645, 1.0 ],
					"textcolor" : [ 1.0, 1.0, 1.0, 1.0 ],
					"bgcolor" : [ 0.19771, 0.188048, 0.201856, 1.0 ],
					"color" : [ 0.701961, 0.415686, 0.886275, 1.0 ]
				}
,
				"parentstyle" : "",
				"multi" : 0
			}
, 			{
				"name" : "tatarism-1-1-6",
				"default" : 				{
					"textcolor_inverse" : [ 0.862745, 0.870588, 0.878431, 1.0 ],
					"fontname" : [ "Futura Medium" ],
					"elementcolor" : [ 0.589653, 0.589635, 0.589645, 1.0 ],
					"textcolor" : [ 1.0, 1.0, 1.0, 1.0 ],
					"bgcolor" : [ 0.19771, 0.188048, 0.201856, 1.0 ],
					"color" : [ 0.701961, 0.415686, 0.886275, 1.0 ]
				}
,
				"parentstyle" : "",
				"multi" : 0
			}
, 			{
				"name" : "tatarism-1-2",
				"default" : 				{
					"textcolor_inverse" : [ 0.862745, 0.870588, 0.878431, 1.0 ],
					"fontname" : [ "Futura Medium" ],
					"elementcolor" : [ 0.589653, 0.589635, 0.589645, 1.0 ],
					"textcolor" : [ 1.0, 1.0, 1.0, 1.0 ],
					"bgcolor" : [ 0.19771, 0.188048, 0.201856, 1.0 ],
					"color" : [ 0.701961, 0.415686, 0.886275, 1.0 ]
				}
,
				"parentstyle" : "",
				"multi" : 0
			}
, 			{
				"name" : "tatarism-1-3",
				"default" : 				{
					"textcolor_inverse" : [ 0.862745, 0.870588, 0.878431, 1.0 ],
					"fontname" : [ "Futura Medium" ],
					"elementcolor" : [ 0.589653, 0.589635, 0.589645, 1.0 ],
					"textcolor" : [ 1.0, 1.0, 1.0, 1.0 ],
					"bgcolor" : [ 0.19771, 0.188048, 0.201856, 1.0 ],
					"color" : [ 0.701961, 0.415686, 0.886275, 1.0 ]
				}
,
				"parentstyle" : "",
				"multi" : 0
			}
, 			{
				"name" : "tatarism-1-4",
				"default" : 				{
					"textcolor_inverse" : [ 0.862745, 0.870588, 0.878431, 1.0 ],
					"fontname" : [ "Futura Medium" ],
					"elementcolor" : [ 0.589653, 0.589635, 0.589645, 1.0 ],
					"textcolor" : [ 1.0, 1.0, 1.0, 1.0 ],
					"bgfillcolor" : 					{
						"type" : "gradient",
						"color" : [ 0.290196, 0.309804, 0.301961, 1.0 ],
						"color1" : [ 0.372549, 0.196078, 0.486275, 1.0 ],
						"color2" : [ 0.290196, 0.309804, 0.301961, 1.0 ],
						"angle" : 270.0,
						"proportion" : 0.39,
						"autogradient" : 0
					}
,
					"bgcolor" : [ 0.19771, 0.188048, 0.201856, 1.0 ],
					"color" : [ 0.701961, 0.415686, 0.886275, 1.0 ]
				}
,
				"parentstyle" : "",
				"multi" : 0
			}
, 			{
				"name" : "tatarism-1-4-1",
				"default" : 				{
					"textcolor_inverse" : [ 0.862745, 0.870588, 0.878431, 1.0 ],
					"fontname" : [ "Futura Medium" ],
					"elementcolor" : [ 0.589653, 0.589635, 0.589645, 1.0 ],
					"textcolor" : [ 1.0, 1.0, 1.0, 1.0 ],
					"bgcolor" : [ 0.19771, 0.188048, 0.201856, 1.0 ],
					"color" : [ 0.701961, 0.415686, 0.886275, 1.0 ]
				}
,
				"parentstyle" : "",
				"multi" : 0
			}
, 			{
				"name" : "tatarism-1-4-1-1",
				"default" : 				{
					"textcolor_inverse" : [ 0.862745, 0.870588, 0.878431, 1.0 ],
					"fontname" : [ "Futura Medium" ],
					"elementcolor" : [ 0.589653, 0.589635, 0.589645, 1.0 ],
					"textcolor" : [ 1.0, 1.0, 1.0, 1.0 ],
					"bgfillcolor" : 					{
						"type" : "gradient",
						"color" : [ 0.290196, 0.309804, 0.301961, 1.0 ],
						"color1" : [ 0.372549, 0.196078, 0.486275, 1.0 ],
						"color2" : [ 0.290196, 0.309804, 0.301961, 1.0 ],
						"angle" : 270.0,
						"proportion" : 0.39,
						"autogradient" : 0
					}
,
					"bgcolor" : [ 0.19771, 0.188048, 0.201856, 1.0 ],
					"color" : [ 0.701961, 0.415686, 0.886275, 1.0 ]
				}
,
				"parentstyle" : "",
				"multi" : 0
			}
, 			{
				"name" : "tatarism-1-4-1-2",
				"default" : 				{
					"textcolor_inverse" : [ 0.862745, 0.870588, 0.878431, 1.0 ],
					"fontname" : [ "Futura Medium" ],
					"elementcolor" : [ 0.589653, 0.589635, 0.589645, 1.0 ],
					"textcolor" : [ 1.0, 1.0, 1.0, 1.0 ],
					"bgfillcolor" : 					{
						"type" : "gradient",
						"color" : [ 0.290196, 0.309804, 0.301961, 1.0 ],
						"color1" : [ 0.372549, 0.196078, 0.486275, 1.0 ],
						"color2" : [ 0.290196, 0.309804, 0.301961, 1.0 ],
						"angle" : 270.0,
						"proportion" : 0.39,
						"autogradient" : 0
					}
,
					"bgcolor" : [ 0.19771, 0.188048, 0.201856, 1.0 ],
					"color" : [ 0.701961, 0.415686, 0.886275, 1.0 ]
				}
,
				"parentstyle" : "",
				"multi" : 0
			}
, 			{
				"name" : "tatarism-1-4-2",
				"default" : 				{
					"textcolor_inverse" : [ 0.862745, 0.870588, 0.878431, 1.0 ],
					"fontname" : [ "Futura Medium" ],
					"elementcolor" : [ 0.589653, 0.589635, 0.589645, 1.0 ],
					"textcolor" : [ 1.0, 1.0, 1.0, 1.0 ],
					"bgcolor" : [ 0.19771, 0.188048, 0.201856, 1.0 ],
					"color" : [ 0.701961, 0.415686, 0.886275, 1.0 ]
				}
,
				"parentstyle" : "",
				"multi" : 0
			}
, 			{
				"name" : "tatarism-1-5",
				"default" : 				{
					"textcolor_inverse" : [ 0.862745, 0.870588, 0.878431, 1.0 ],
					"fontname" : [ "Futura Medium" ],
					"elementcolor" : [ 0.589653, 0.589635, 0.589645, 1.0 ],
					"textcolor" : [ 1.0, 1.0, 1.0, 1.0 ],
					"bgfillcolor" : 					{
						"type" : "gradient",
						"color" : [ 0.290196, 0.309804, 0.301961, 1.0 ],
						"color1" : [ 0.372549, 0.196078, 0.486275, 1.0 ],
						"color2" : [ 0.290196, 0.309804, 0.301961, 1.0 ],
						"angle" : 270.0,
						"proportion" : 0.39,
						"autogradient" : 0
					}
,
					"bgcolor" : [ 0.19771, 0.188048, 0.201856, 1.0 ],
					"color" : [ 0.701961, 0.415686, 0.886275, 1.0 ]
				}
,
				"parentstyle" : "",
				"multi" : 0
			}
, 			{
				"name" : "tatarism-1-6",
				"default" : 				{
					"textcolor_inverse" : [ 0.862745, 0.870588, 0.878431, 1.0 ],
					"fontsize" : [ 11.0 ],
					"fontname" : [ "Futura Medium" ],
					"elementcolor" : [ 0.589653, 0.589635, 0.589645, 1.0 ],
					"textcolor" : [ 1.0, 1.0, 1.0, 1.0 ],
					"bgcolor" : [ 0.19771, 0.188048, 0.201856, 1.0 ],
					"color" : [ 0.701961, 0.415686, 0.886275, 1.0 ]
				}
,
				"parentstyle" : "",
				"multi" : 0
			}
, 			{
				"name" : "tatarism-1-6-1",
				"default" : 				{
					"textcolor_inverse" : [ 0.862745, 0.870588, 0.878431, 1.0 ],
					"fontname" : [ "Futura Medium" ],
					"elementcolor" : [ 0.589653, 0.589635, 0.589645, 1.0 ],
					"textcolor" : [ 1.0, 1.0, 1.0, 1.0 ],
					"bgcolor" : [ 0.19771, 0.188048, 0.201856, 1.0 ],
					"color" : [ 0.701961, 0.415686, 0.886275, 1.0 ],
					"selectioncolor" : [ 1.0, 1.0, 1.0, 1.0 ]
				}
,
				"parentstyle" : "",
				"multi" : 0
			}
, 			{
				"name" : "tatarism-1-6-2",
				"default" : 				{
					"textcolor_inverse" : [ 0.862745, 0.870588, 0.878431, 1.0 ],
					"fontname" : [ "Futura Medium" ],
					"elementcolor" : [ 0.589653, 0.589635, 0.589645, 1.0 ],
					"textcolor" : [ 1.0, 1.0, 1.0, 1.0 ],
					"bgcolor" : [ 0.19771, 0.188048, 0.201856, 1.0 ],
					"color" : [ 0.701961, 0.415686, 0.886275, 1.0 ],
					"selectioncolor" : [ 1.0, 1.0, 1.0, 1.0 ]
				}
,
				"parentstyle" : "",
				"multi" : 0
			}
, 			{
				"name" : "tatarism-1-6-3",
				"default" : 				{
					"textcolor_inverse" : [ 0.862745, 0.870588, 0.878431, 1.0 ],
					"fontname" : [ "Futura Medium" ],
					"elementcolor" : [ 0.589653, 0.589635, 0.589645, 1.0 ],
					"textcolor" : [ 1.0, 1.0, 1.0, 1.0 ],
					"bgcolor" : [ 0.19771, 0.188048, 0.201856, 1.0 ],
					"color" : [ 0.701961, 0.415686, 0.886275, 1.0 ],
					"selectioncolor" : [ 1.0, 1.0, 1.0, 1.0 ]
				}
,
				"parentstyle" : "",
				"multi" : 0
			}
, 			{
				"name" : "tatarism-1-7",
				"default" : 				{
					"textcolor_inverse" : [ 0.862745, 0.870588, 0.878431, 1.0 ],
					"fontsize" : [ 11.0 ],
					"fontname" : [ "Futura Medium" ],
					"elementcolor" : [ 0.589653, 0.589635, 0.589645, 1.0 ],
					"textcolor" : [ 1.0, 1.0, 1.0, 1.0 ],
					"bgcolor" : [ 0.19771, 0.188048, 0.201856, 1.0 ],
					"color" : [ 0.701961, 0.415686, 0.886275, 1.0 ]
				}
,
				"parentstyle" : "",
				"multi" : 0
			}
, 			{
				"name" : "tatarism-10",
				"default" : 				{
					"textcolor_inverse" : [ 0.862745, 0.870588, 0.878431, 1.0 ],
					"fontname" : [ "Futura Medium" ],
					"elementcolor" : [ 0.589653, 0.589635, 0.589645, 1.0 ],
					"textcolor" : [ 1.0, 1.0, 1.0, 1.0 ],
					"bgcolor" : [ 0.19771, 0.188048, 0.201856, 1.0 ],
					"color" : [ 0.701961, 0.415686, 0.886275, 1.0 ]
				}
,
				"parentstyle" : "",
				"multi" : 0
			}
, 			{
				"name" : "tatarism-11",
				"default" : 				{
					"textcolor_inverse" : [ 0.862745, 0.870588, 0.878431, 1.0 ],
					"fontname" : [ "Futura Medium" ],
					"elementcolor" : [ 0.589653, 0.589635, 0.589645, 1.0 ],
					"textcolor" : [ 1.0, 1.0, 1.0, 1.0 ],
					"bgcolor" : [ 0.19771, 0.188048, 0.201856, 1.0 ],
					"color" : [ 0.701961, 0.415686, 0.886275, 1.0 ]
				}
,
				"parentstyle" : "",
				"multi" : 0
			}
, 			{
				"name" : "tatarism-12",
				"default" : 				{
					"textcolor_inverse" : [ 0.862745, 0.870588, 0.878431, 1.0 ],
					"fontname" : [ "Futura Medium" ],
					"elementcolor" : [ 0.589653, 0.589635, 0.589645, 1.0 ],
					"textcolor" : [ 1.0, 1.0, 1.0, 1.0 ],
					"bgcolor" : [ 0.19771, 0.188048, 0.201856, 1.0 ],
					"color" : [ 0.701961, 0.415686, 0.886275, 1.0 ]
				}
,
				"parentstyle" : "",
				"multi" : 0
			}
, 			{
				"name" : "tatarism-13",
				"default" : 				{
					"textcolor_inverse" : [ 0.862745, 0.870588, 0.878431, 1.0 ],
					"fontname" : [ "Futura Medium" ],
					"elementcolor" : [ 0.589653, 0.589635, 0.589645, 1.0 ],
					"textcolor" : [ 1.0, 1.0, 1.0, 1.0 ],
					"bgcolor" : [ 0.19771, 0.188048, 0.201856, 1.0 ],
					"color" : [ 0.701961, 0.415686, 0.886275, 1.0 ]
				}
,
				"parentstyle" : "",
				"multi" : 0
			}
, 			{
				"name" : "tatarism-14",
				"default" : 				{
					"textcolor_inverse" : [ 0.862745, 0.870588, 0.878431, 1.0 ],
					"fontname" : [ "Futura Medium" ],
					"elementcolor" : [ 0.589653, 0.589635, 0.589645, 1.0 ],
					"textcolor" : [ 1.0, 1.0, 1.0, 1.0 ],
					"bgcolor" : [ 0.19771, 0.188048, 0.201856, 1.0 ],
					"color" : [ 0.701961, 0.415686, 0.886275, 1.0 ]
				}
,
				"parentstyle" : "",
				"multi" : 0
			}
, 			{
				"name" : "tatarism-15",
				"default" : 				{
					"textcolor_inverse" : [ 0.862745, 0.870588, 0.878431, 1.0 ],
					"fontname" : [ "Futura Medium" ],
					"elementcolor" : [ 0.589653, 0.589635, 0.589645, 1.0 ],
					"textcolor" : [ 1.0, 1.0, 1.0, 1.0 ],
					"bgcolor" : [ 0.19771, 0.188048, 0.201856, 1.0 ],
					"color" : [ 0.701961, 0.415686, 0.886275, 1.0 ]
				}
,
				"parentstyle" : "",
				"multi" : 0
			}
, 			{
				"name" : "tatarism-16",
				"default" : 				{
					"textcolor_inverse" : [ 0.862745, 0.870588, 0.878431, 1.0 ],
					"fontname" : [ "Futura Medium" ],
					"elementcolor" : [ 0.589653, 0.589635, 0.589645, 1.0 ],
					"textcolor" : [ 1.0, 1.0, 1.0, 1.0 ],
					"bgcolor" : [ 0.19771, 0.188048, 0.201856, 1.0 ],
					"color" : [ 0.701961, 0.415686, 0.886275, 1.0 ]
				}
,
				"parentstyle" : "",
				"multi" : 0
			}
, 			{
				"name" : "tatarism-17",
				"default" : 				{
					"textcolor_inverse" : [ 0.862745, 0.870588, 0.878431, 1.0 ],
					"fontname" : [ "Futura Medium" ],
					"elementcolor" : [ 0.589653, 0.589635, 0.589645, 1.0 ],
					"textcolor" : [ 1.0, 1.0, 1.0, 1.0 ],
					"bgcolor" : [ 0.19771, 0.188048, 0.201856, 1.0 ],
					"color" : [ 0.701961, 0.415686, 0.886275, 1.0 ]
				}
,
				"parentstyle" : "",
				"multi" : 0
			}
, 			{
				"name" : "tatarism-18",
				"default" : 				{
					"textcolor_inverse" : [ 0.862745, 0.870588, 0.878431, 1.0 ],
					"fontname" : [ "Futura Medium" ],
					"elementcolor" : [ 0.589653, 0.589635, 0.589645, 1.0 ],
					"textcolor" : [ 1.0, 1.0, 1.0, 1.0 ],
					"bgcolor" : [ 0.19771, 0.188048, 0.201856, 1.0 ],
					"color" : [ 0.701961, 0.415686, 0.886275, 1.0 ]
				}
,
				"parentstyle" : "",
				"multi" : 0
			}
, 			{
				"name" : "tatarism-19",
				"default" : 				{
					"textcolor_inverse" : [ 0.862745, 0.870588, 0.878431, 1.0 ],
					"fontname" : [ "Futura Medium" ],
					"elementcolor" : [ 0.589653, 0.589635, 0.589645, 1.0 ],
					"textcolor" : [ 1.0, 1.0, 1.0, 1.0 ],
					"bgcolor" : [ 0.19771, 0.188048, 0.201856, 1.0 ],
					"color" : [ 0.701961, 0.415686, 0.886275, 1.0 ]
				}
,
				"parentstyle" : "",
				"multi" : 0
			}
, 			{
				"name" : "tatarism-2",
				"default" : 				{
					"textcolor_inverse" : [ 0.862745, 0.870588, 0.878431, 1.0 ],
					"fontname" : [ "Futura Medium" ],
					"elementcolor" : [ 0.589653, 0.589635, 0.589645, 1.0 ],
					"textcolor" : [ 1.0, 1.0, 1.0, 1.0 ],
					"bgcolor" : [ 0.19771, 0.188048, 0.201856, 1.0 ],
					"color" : [ 0.701961, 0.415686, 0.886275, 1.0 ]
				}
,
				"parentstyle" : "",
				"multi" : 0
			}
, 			{
				"name" : "tatarism-2-1",
				"default" : 				{
					"textcolor_inverse" : [ 0.862745, 0.870588, 0.878431, 1.0 ],
					"fontsize" : [ 11.0 ],
					"fontname" : [ "Futura Medium" ],
					"elementcolor" : [ 0.589653, 0.589635, 0.589645, 1.0 ],
					"textcolor" : [ 1.0, 1.0, 1.0, 1.0 ],
					"bgcolor" : [ 0.19771, 0.188048, 0.201856, 1.0 ],
					"color" : [ 0.701961, 0.415686, 0.886275, 1.0 ]
				}
,
				"parentstyle" : "",
				"multi" : 0
			}
, 			{
				"name" : "tatarism-2-1-1",
				"default" : 				{
					"textcolor_inverse" : [ 0.862745, 0.870588, 0.878431, 1.0 ],
					"fontname" : [ "Futura Medium" ],
					"elementcolor" : [ 0.589653, 0.589635, 0.589645, 1.0 ],
					"textcolor" : [ 1.0, 1.0, 1.0, 1.0 ],
					"bgcolor" : [ 0.19771, 0.188048, 0.201856, 1.0 ],
					"color" : [ 0.701961, 0.415686, 0.886275, 1.0 ]
				}
,
				"parentstyle" : "",
				"multi" : 0
			}
, 			{
				"name" : "tatarism-2-1-2",
				"default" : 				{
					"textcolor_inverse" : [ 0.862745, 0.870588, 0.878431, 1.0 ],
					"fontname" : [ "Futura Medium" ],
					"elementcolor" : [ 0.589653, 0.589635, 0.589645, 1.0 ],
					"textcolor" : [ 1.0, 1.0, 1.0, 1.0 ],
					"bgcolor" : [ 0.19771, 0.188048, 0.201856, 1.0 ],
					"color" : [ 0.701961, 0.415686, 0.886275, 1.0 ]
				}
,
				"parentstyle" : "",
				"multi" : 0
			}
, 			{
				"name" : "tatarism-2-2",
				"default" : 				{
					"textcolor_inverse" : [ 0.862745, 0.870588, 0.878431, 1.0 ],
					"fontsize" : [ 11.0 ],
					"fontname" : [ "Futura Medium" ],
					"elementcolor" : [ 0.589653, 0.589635, 0.589645, 1.0 ],
					"textcolor" : [ 1.0, 1.0, 1.0, 1.0 ],
					"bgcolor" : [ 0.19771, 0.188048, 0.201856, 1.0 ],
					"color" : [ 0.701961, 0.415686, 0.886275, 1.0 ]
				}
,
				"parentstyle" : "",
				"multi" : 0
			}
, 			{
				"name" : "tatarism-20",
				"default" : 				{
					"textcolor_inverse" : [ 0.862745, 0.870588, 0.878431, 1.0 ],
					"fontname" : [ "Futura Medium" ],
					"elementcolor" : [ 0.589653, 0.589635, 0.589645, 1.0 ],
					"textcolor" : [ 1.0, 1.0, 1.0, 1.0 ],
					"bgcolor" : [ 0.19771, 0.188048, 0.201856, 1.0 ],
					"color" : [ 0.701961, 0.415686, 0.886275, 1.0 ]
				}
,
				"parentstyle" : "",
				"multi" : 0
			}
, 			{
				"name" : "tatarism-21",
				"default" : 				{
					"textcolor_inverse" : [ 0.862745, 0.870588, 0.878431, 1.0 ],
					"fontname" : [ "Futura Medium" ],
					"elementcolor" : [ 0.589653, 0.589635, 0.589645, 1.0 ],
					"textcolor" : [ 1.0, 1.0, 1.0, 1.0 ],
					"bgcolor" : [ 0.19771, 0.188048, 0.201856, 1.0 ],
					"color" : [ 0.701961, 0.415686, 0.886275, 1.0 ]
				}
,
				"parentstyle" : "",
				"multi" : 0
			}
, 			{
				"name" : "tatarism-22",
				"default" : 				{
					"textcolor_inverse" : [ 0.862745, 0.870588, 0.878431, 1.0 ],
					"fontname" : [ "Futura Medium" ],
					"elementcolor" : [ 0.589653, 0.589635, 0.589645, 1.0 ],
					"textcolor" : [ 1.0, 1.0, 1.0, 1.0 ],
					"bgcolor" : [ 0.19771, 0.188048, 0.201856, 1.0 ],
					"color" : [ 0.701961, 0.415686, 0.886275, 1.0 ]
				}
,
				"parentstyle" : "",
				"multi" : 0
			}
, 			{
				"name" : "tatarism-3",
				"default" : 				{
					"textcolor_inverse" : [ 0.862745, 0.870588, 0.878431, 1.0 ],
					"fontname" : [ "Futura Medium" ],
					"elementcolor" : [ 0.589653, 0.589635, 0.589645, 1.0 ],
					"textcolor" : [ 1.0, 1.0, 1.0, 1.0 ],
					"bgcolor" : [ 0.19771, 0.188048, 0.201856, 1.0 ],
					"color" : [ 0.701961, 0.415686, 0.886275, 1.0 ]
				}
,
				"parentstyle" : "",
				"multi" : 0
			}
, 			{
				"name" : "tatarism-3-1",
				"default" : 				{
					"textcolor_inverse" : [ 0.862745, 0.870588, 0.878431, 1.0 ],
					"fontname" : [ "Futura Medium" ],
					"elementcolor" : [ 0.589653, 0.589635, 0.589645, 1.0 ],
					"textcolor" : [ 1.0, 1.0, 1.0, 1.0 ],
					"bgfillcolor" : 					{
						"type" : "gradient",
						"color" : [ 0.290196, 0.309804, 0.301961, 1.0 ],
						"color1" : [ 0.372549, 0.196078, 0.486275, 1.0 ],
						"color2" : [ 0.290196, 0.309804, 0.301961, 1.0 ],
						"angle" : 270.0,
						"proportion" : 0.39,
						"autogradient" : 0
					}
,
					"bgcolor" : [ 0.19771, 0.188048, 0.201856, 1.0 ],
					"color" : [ 0.701961, 0.415686, 0.886275, 1.0 ]
				}
,
				"parentstyle" : "",
				"multi" : 0
			}
, 			{
				"name" : "tatarism-3-1-1",
				"default" : 				{
					"textcolor_inverse" : [ 0.862745, 0.870588, 0.878431, 1.0 ],
					"fontname" : [ "Futura Medium" ],
					"elementcolor" : [ 0.589653, 0.589635, 0.589645, 1.0 ],
					"textcolor" : [ 1.0, 1.0, 1.0, 1.0 ],
					"bgcolor" : [ 0.19771, 0.188048, 0.201856, 1.0 ],
					"color" : [ 0.701961, 0.415686, 0.886275, 1.0 ]
				}
,
				"parentstyle" : "",
				"multi" : 0
			}
, 			{
				"name" : "tatarism-3-1-1-1",
				"default" : 				{
					"textcolor_inverse" : [ 0.862745, 0.870588, 0.878431, 1.0 ],
					"fontname" : [ "Futura Medium" ],
					"elementcolor" : [ 0.589653, 0.589635, 0.589645, 1.0 ],
					"textcolor" : [ 1.0, 1.0, 1.0, 1.0 ],
					"bgfillcolor" : 					{
						"type" : "gradient",
						"color" : [ 0.290196, 0.309804, 0.301961, 1.0 ],
						"color1" : [ 0.372549, 0.196078, 0.486275, 1.0 ],
						"color2" : [ 0.290196, 0.309804, 0.301961, 1.0 ],
						"angle" : 270.0,
						"proportion" : 0.39,
						"autogradient" : 0
					}
,
					"bgcolor" : [ 0.19771, 0.188048, 0.201856, 1.0 ],
					"color" : [ 0.701961, 0.415686, 0.886275, 1.0 ]
				}
,
				"parentstyle" : "",
				"multi" : 0
			}
, 			{
				"name" : "tatarism-3-1-1-2",
				"default" : 				{
					"textcolor_inverse" : [ 0.862745, 0.870588, 0.878431, 1.0 ],
					"fontname" : [ "Futura Medium" ],
					"elementcolor" : [ 0.589653, 0.589635, 0.589645, 1.0 ],
					"textcolor" : [ 1.0, 1.0, 1.0, 1.0 ],
					"bgfillcolor" : 					{
						"type" : "gradient",
						"color" : [ 0.290196, 0.309804, 0.301961, 1.0 ],
						"color1" : [ 0.372549, 0.196078, 0.486275, 1.0 ],
						"color2" : [ 0.290196, 0.309804, 0.301961, 1.0 ],
						"angle" : 270.0,
						"proportion" : 0.39,
						"autogradient" : 0
					}
,
					"bgcolor" : [ 0.19771, 0.188048, 0.201856, 1.0 ],
					"color" : [ 0.701961, 0.415686, 0.886275, 1.0 ]
				}
,
				"parentstyle" : "",
				"multi" : 0
			}
, 			{
				"name" : "tatarism-3-1-2",
				"default" : 				{
					"textcolor_inverse" : [ 0.862745, 0.870588, 0.878431, 1.0 ],
					"fontname" : [ "Futura Medium" ],
					"elementcolor" : [ 0.589653, 0.589635, 0.589645, 1.0 ],
					"textcolor" : [ 1.0, 1.0, 1.0, 1.0 ],
					"bgcolor" : [ 0.19771, 0.188048, 0.201856, 1.0 ],
					"color" : [ 0.701961, 0.415686, 0.886275, 1.0 ]
				}
,
				"parentstyle" : "",
				"multi" : 0
			}
, 			{
				"name" : "tatarism-3-2",
				"default" : 				{
					"textcolor_inverse" : [ 0.862745, 0.870588, 0.878431, 1.0 ],
					"fontsize" : [ 11.0 ],
					"fontname" : [ "Futura Medium" ],
					"elementcolor" : [ 0.589653, 0.589635, 0.589645, 1.0 ],
					"textcolor" : [ 1.0, 1.0, 1.0, 1.0 ],
					"bgcolor" : [ 0.19771, 0.188048, 0.201856, 1.0 ],
					"color" : [ 0.701961, 0.415686, 0.886275, 1.0 ]
				}
,
				"parentstyle" : "",
				"multi" : 0
			}
, 			{
				"name" : "tatarism-3-3",
				"default" : 				{
					"textcolor_inverse" : [ 0.862745, 0.870588, 0.878431, 1.0 ],
					"fontsize" : [ 11.0 ],
					"fontname" : [ "Futura Medium" ],
					"elementcolor" : [ 0.589653, 0.589635, 0.589645, 1.0 ],
					"textcolor" : [ 1.0, 1.0, 1.0, 1.0 ],
					"bgcolor" : [ 0.19771, 0.188048, 0.201856, 1.0 ],
					"color" : [ 0.701961, 0.415686, 0.886275, 1.0 ]
				}
,
				"parentstyle" : "",
				"multi" : 0
			}
, 			{
				"name" : "tatarism-4",
				"default" : 				{
					"textcolor_inverse" : [ 0.862745, 0.870588, 0.878431, 1.0 ],
					"fontname" : [ "Futura Medium" ],
					"elementcolor" : [ 0.589653, 0.589635, 0.589645, 1.0 ],
					"textcolor" : [ 1.0, 1.0, 1.0, 1.0 ],
					"bgcolor" : [ 0.19771, 0.188048, 0.201856, 1.0 ],
					"color" : [ 0.701961, 0.415686, 0.886275, 1.0 ]
				}
,
				"parentstyle" : "",
				"multi" : 0
			}
, 			{
				"name" : "tatarism-4-1",
				"default" : 				{
					"textcolor_inverse" : [ 0.862745, 0.870588, 0.878431, 1.0 ],
					"fontsize" : [ 11.0 ],
					"fontname" : [ "Futura Medium" ],
					"elementcolor" : [ 0.589653, 0.589635, 0.589645, 1.0 ],
					"textcolor" : [ 1.0, 1.0, 1.0, 1.0 ],
					"bgcolor" : [ 0.19771, 0.188048, 0.201856, 1.0 ],
					"color" : [ 0.701961, 0.415686, 0.886275, 1.0 ]
				}
,
				"parentstyle" : "",
				"multi" : 0
			}
, 			{
				"name" : "tatarism-4-1-1",
				"default" : 				{
					"textcolor_inverse" : [ 0.862745, 0.870588, 0.878431, 1.0 ],
					"fontname" : [ "Futura Medium" ],
					"elementcolor" : [ 0.589653, 0.589635, 0.589645, 1.0 ],
					"textcolor" : [ 1.0, 1.0, 1.0, 1.0 ],
					"bgcolor" : [ 0.19771, 0.188048, 0.201856, 1.0 ],
					"color" : [ 0.701961, 0.415686, 0.886275, 1.0 ]
				}
,
				"parentstyle" : "",
				"multi" : 0
			}
, 			{
				"name" : "tatarism-4-1-2",
				"default" : 				{
					"textcolor_inverse" : [ 0.862745, 0.870588, 0.878431, 1.0 ],
					"fontname" : [ "Futura Medium" ],
					"elementcolor" : [ 0.589653, 0.589635, 0.589645, 1.0 ],
					"textcolor" : [ 1.0, 1.0, 1.0, 1.0 ],
					"bgcolor" : [ 0.19771, 0.188048, 0.201856, 1.0 ],
					"color" : [ 0.701961, 0.415686, 0.886275, 1.0 ]
				}
,
				"parentstyle" : "",
				"multi" : 0
			}
, 			{
				"name" : "tatarism-4-2",
				"default" : 				{
					"textcolor_inverse" : [ 0.862745, 0.870588, 0.878431, 1.0 ],
					"fontsize" : [ 11.0 ],
					"fontname" : [ "Futura Medium" ],
					"elementcolor" : [ 0.589653, 0.589635, 0.589645, 1.0 ],
					"textcolor" : [ 1.0, 1.0, 1.0, 1.0 ],
					"bgcolor" : [ 0.19771, 0.188048, 0.201856, 1.0 ],
					"color" : [ 0.701961, 0.415686, 0.886275, 1.0 ]
				}
,
				"parentstyle" : "",
				"multi" : 0
			}
, 			{
				"name" : "tatarism-5",
				"default" : 				{
					"textcolor_inverse" : [ 0.862745, 0.870588, 0.878431, 1.0 ],
					"fontname" : [ "Futura Medium" ],
					"elementcolor" : [ 0.589653, 0.589635, 0.589645, 1.0 ],
					"textcolor" : [ 1.0, 1.0, 1.0, 1.0 ],
					"bgfillcolor" : 					{
						"type" : "gradient",
						"color" : [ 0.290196, 0.309804, 0.301961, 1.0 ],
						"color1" : [ 0.372549, 0.196078, 0.486275, 1.0 ],
						"color2" : [ 0.290196, 0.309804, 0.301961, 1.0 ],
						"angle" : 270.0,
						"proportion" : 0.39,
						"autogradient" : 0
					}
,
					"bgcolor" : [ 0.19771, 0.188048, 0.201856, 1.0 ],
					"color" : [ 0.701961, 0.415686, 0.886275, 1.0 ]
				}
,
				"parentstyle" : "",
				"multi" : 0
			}
, 			{
				"name" : "tatarism-6",
				"default" : 				{
					"textcolor_inverse" : [ 0.862745, 0.870588, 0.878431, 1.0 ],
					"fontname" : [ "Futura Medium" ],
					"elementcolor" : [ 0.589653, 0.589635, 0.589645, 1.0 ],
					"textcolor" : [ 1.0, 1.0, 1.0, 1.0 ],
					"bgcolor" : [ 0.19771, 0.188048, 0.201856, 1.0 ],
					"color" : [ 0.701961, 0.415686, 0.886275, 1.0 ]
				}
,
				"parentstyle" : "",
				"multi" : 0
			}
, 			{
				"name" : "tatarism-7",
				"default" : 				{
					"textcolor_inverse" : [ 0.862745, 0.870588, 0.878431, 1.0 ],
					"fontname" : [ "Futura Medium" ],
					"elementcolor" : [ 0.589653, 0.589635, 0.589645, 1.0 ],
					"textcolor" : [ 1.0, 1.0, 1.0, 1.0 ],
					"bgcolor" : [ 0.19771, 0.188048, 0.201856, 1.0 ],
					"color" : [ 0.701961, 0.415686, 0.886275, 1.0 ]
				}
,
				"parentstyle" : "",
				"multi" : 0
			}
, 			{
				"name" : "tatarism-7-1",
				"default" : 				{
					"textcolor_inverse" : [ 0.862745, 0.870588, 0.878431, 1.0 ],
					"fontname" : [ "Futura Medium" ],
					"elementcolor" : [ 0.589653, 0.589635, 0.589645, 1.0 ],
					"textcolor" : [ 1.0, 1.0, 1.0, 1.0 ],
					"bgcolor" : [ 0.19771, 0.188048, 0.201856, 1.0 ],
					"color" : [ 0.701961, 0.415686, 0.886275, 1.0 ],
					"selectioncolor" : [ 1.0, 1.0, 1.0, 1.0 ]
				}
,
				"parentstyle" : "",
				"multi" : 0
			}
, 			{
				"name" : "tatarism-8",
				"default" : 				{
					"textcolor_inverse" : [ 0.862745, 0.870588, 0.878431, 1.0 ],
					"fontname" : [ "Futura Medium" ],
					"elementcolor" : [ 0.589653, 0.589635, 0.589645, 1.0 ],
					"textcolor" : [ 1.0, 1.0, 1.0, 1.0 ],
					"bgcolor" : [ 0.19771, 0.188048, 0.201856, 1.0 ],
					"color" : [ 0.701961, 0.415686, 0.886275, 1.0 ]
				}
,
				"parentstyle" : "",
				"multi" : 0
			}
, 			{
				"name" : "tatarism-8-1",
				"default" : 				{
					"textcolor_inverse" : [ 0.862745, 0.870588, 0.878431, 1.0 ],
					"fontname" : [ "Futura Medium" ],
					"elementcolor" : [ 0.589653, 0.589635, 0.589645, 1.0 ],
					"textcolor" : [ 1.0, 1.0, 1.0, 1.0 ],
					"bgcolor" : [ 0.19771, 0.188048, 0.201856, 1.0 ],
					"color" : [ 0.701961, 0.415686, 0.886275, 1.0 ],
					"selectioncolor" : [ 1.0, 1.0, 1.0, 1.0 ]
				}
,
				"parentstyle" : "",
				"multi" : 0
			}
, 			{
				"name" : "tatarism-9",
				"default" : 				{
					"textcolor_inverse" : [ 0.862745, 0.870588, 0.878431, 1.0 ],
					"fontname" : [ "Futura Medium" ],
					"elementcolor" : [ 0.589653, 0.589635, 0.589645, 1.0 ],
					"textcolor" : [ 1.0, 1.0, 1.0, 1.0 ],
					"bgcolor" : [ 0.19771, 0.188048, 0.201856, 1.0 ],
					"color" : [ 0.701961, 0.415686, 0.886275, 1.0 ]
				}
,
				"parentstyle" : "",
				"multi" : 0
			}
 ],
		"default_bgcolor" : [ 0.19771, 0.188048, 0.201856, 1.0 ],
		"color" : [ 0.701961, 0.415686, 0.886275, 1.0 ],
		"elementcolor" : [ 0.589653, 0.589635, 0.589645, 1.0 ],
		"textcolor" : [ 1.0, 1.0, 1.0, 1.0 ],
		"textcolor_inverse" : [ 0.862745, 0.870588, 0.878431, 1.0 ],
		"bgfillcolor_type" : "gradient",
		"bgfillcolor_color1" : [ 0.376471, 0.384314, 0.4, 1.0 ],
		"bgfillcolor_color2" : [ 0.290196, 0.309804, 0.301961, 1.0 ],
		"bgfillcolor_color" : [ 0.290196, 0.309804, 0.301961, 1.0 ],
		"bgfillcolor_angle" : 270.0,
		"bgfillcolor_proportion" : 0.39
	}

}
